<svg width="60" height="60" viewBox="0 0 60 60" xmlns="http://www.w3.org/2000/svg">
    <path d="M1.55277 34.42L10.6608 25.036C11.6421 24.0547 12.7461 23.564 13.9728 23.564C14.4328 23.564 14.8774 23.702 15.3068 23.978C15.7668 24.254 16.0888 24.6527 16.2728 25.174L14.5708 26.83L7.80877 33.822L12.0868 39.572C12.4548 40.032 12.6388 40.5227 12.6388 41.044C12.6388 41.5347 12.5621 41.9947 12.4088 42.424C12.2554 42.8227 12.0101 43.1907 11.6728 43.528C10.9981 44.2947 10.0321 44.7087 8.77477 44.77L1.55277 34.42ZM23.7629 51.854C23.7629 51.302 23.9009 50.6273 24.1769 49.83L39.2189 8.292C39.7709 8.2 40.5835 8.154 41.6569 8.154C42.7609 8.154 43.6349 8.30733 44.2789 8.614C44.9535 8.89 45.2909 9.47266 45.2909 10.362C45.2909 11.1287 45.0455 12.2173 44.5549 13.628L29.9269 54.016C29.6815 54.1387 28.8382 54.2 27.3969 54.2C24.9742 54.2 23.7629 53.418 23.7629 51.854ZM42.2646 43.114L45.3006 40.124L50.7286 34.466L47.6926 30.372C47.2326 29.7893 46.8186 29.2527 46.4506 28.762C46.0826 28.2713 45.8986 27.7807 45.8986 27.29C45.8986 26.7993 45.9752 26.3393 46.1286 25.91C46.2819 25.4807 46.5272 25.0973 46.8646 24.76C47.5699 23.9933 48.5359 23.5793 49.7626 23.518L56.9846 33.868L47.8766 43.252C46.8952 44.2333 45.7912 44.724 44.5646 44.724C44.1046 44.724 43.6446 44.586 43.1846 44.31C42.7552 44.034 42.4486 43.6353 42.2646 43.114Z"/>
</svg>
