<svg xmlns="http://www.w3.org/2000/svg" style="display: none;">
    <symbol id="download-icon" viewBox="0 0 17 17">
        <path d="M2.92188 14.875C2.42874 14.875 1.9558 14.6791 1.6071 14.3304C1.2584 13.9817 1.0625 13.5088 1.0625 13.0156V10.3594C1.0625 10.148 1.14646 9.94534 1.2959 9.7959C1.44534 9.64646 1.64803 9.5625 1.85938 9.5625C2.07072 9.5625 2.27341 9.64646 2.42285 9.7959C2.57229 9.94534 2.65625 10.148 2.65625 10.3594V13.0156C2.65625 13.1623 2.77525 13.2812 2.92188 13.2812H14.0781C14.1486 13.2812 14.2161 13.2533 14.266 13.2035C14.3158 13.1536 14.3438 13.0861 14.3438 13.0156V10.3594C14.3438 10.148 14.4277 9.94534 14.5771 9.7959C14.7266 9.64646 14.9293 9.5625 15.1406 9.5625C15.352 9.5625 15.5547 9.64646 15.7041 9.7959C15.8535 9.94534 15.9375 10.148 15.9375 10.3594V13.0156C15.9375 13.5088 15.7416 13.9817 15.3929 14.3304C15.0442 14.6791 14.5713 14.875 14.0781 14.875H2.92188Z" />
        <path d="M7.70312 8.16956V2.125C7.70312 1.91366 7.78707 1.71097 7.93652 1.56152C8.08596 1.41208 8.28865 1.32813 8.49999 1.32812C8.71134 1.32812 8.91402 1.41208 9.06347 1.56152C9.21291 1.71097 9.29687 1.91366 9.29687 2.125V8.16956L11.39 6.0775C11.4639 6.00355 11.5517 5.94489 11.6484 5.90487C11.745 5.86485 11.8485 5.84425 11.9531 5.84425C12.0577 5.84425 12.1613 5.86485 12.2579 5.90487C12.3545 5.94489 12.4423 6.00355 12.5162 6.0775C12.5902 6.15145 12.6489 6.23924 12.6889 6.33586C12.7289 6.43249 12.7495 6.53604 12.7495 6.64062C12.7495 6.74521 12.7289 6.84876 12.6889 6.94539C12.6489 7.04201 12.5902 7.1298 12.5162 7.20375L9.06312 10.6569C8.9137 10.8061 8.71116 10.8899 8.49999 10.8899C8.28882 10.8899 8.08628 10.8061 7.93687 10.6569L4.48374 7.20375C4.40979 7.1298 4.35113 7.04201 4.31111 6.94539C4.27109 6.84876 4.25049 6.74521 4.25049 6.64062C4.25049 6.53604 4.27109 6.43249 4.31111 6.33586C4.35113 6.23924 4.40979 6.15145 4.48374 6.0775C4.55769 6.00355 4.64549 5.94489 4.74211 5.90487C4.83873 5.86485 4.94229 5.84425 5.04687 5.84425C5.15145 5.84425 5.25501 5.86485 5.35163 5.90487C5.44825 5.94489 5.53604 6.00355 5.60999 6.0775L7.70312 8.16956Z"/>
    </symbol>
</svg>
