<svg xmlns="http://www.w3.org/2000/svg" style="display: none;">
    <symbol id="main-icon" viewBox="0 0 60 60">
        <path d="M1.55277 34.42L10.6608 25.036C11.6421 24.0547 12.7461 23.564 13.9728 23.564C14.4328 23.564 14.8774 23.702 15.3068 23.978C15.7668 24.254 16.0888 24.6527 16.2728 25.174L14.5708 26.83L7.80877 33.822L12.0868 39.572C12.4548 40.032 12.6388 40.5227 12.6388 41.044C12.6388 41.5347 12.5621 41.9947 12.4088 42.424C12.2554 42.8227 12.0101 43.1907 11.6728 43.528C10.9981 44.2947 10.0321 44.7087 8.77477 44.77L1.55277 34.42ZM23.7629 51.854C23.7629 51.302 23.9009 50.6273 24.1769 49.83L39.2189 8.292C39.7709 8.2 40.5835 8.154 41.6569 8.154C42.7609 8.154 43.6349 8.30733 44.2789 8.614C44.9535 8.89 45.2909 9.47266 45.2909 10.362C45.2909 11.1287 45.0455 12.2173 44.5549 13.628L29.9269 54.016C29.6815 54.1387 28.8382 54.2 27.3969 54.2C24.9742 54.2 23.7629 53.418 23.7629 51.854ZM42.2646 43.114L45.3006 40.124L50.7286 34.466L47.6926 30.372C47.2326 29.7893 46.8186 29.2527 46.4506 28.762C46.0826 28.2713 45.8986 27.7807 45.8986 27.29C45.8986 26.7993 45.9752 26.3393 46.1286 25.91C46.2819 25.4807 46.5272 25.0973 46.8646 24.76C47.5699 23.9933 48.5359 23.5793 49.7626 23.518L56.9846 33.868L47.8766 43.252C46.8952 44.2333 45.7912 44.724 44.5646 44.724C44.1046 44.724 43.6446 44.586 43.1846 44.31C42.7552 44.034 42.4486 43.6353 42.2646 43.114Z"/>
    </symbol>

    <symbol id="lightmode-icon" viewBox="0 0 21 21">
        <path d="M12 15.5C12.9667 15.5 13.7917 15.1583 14.475 14.475C15.1583 13.7917 15.5 12.9667 15.5 12C15.5 11.0333 15.1583 10.2083 14.475 9.525C13.7917 8.84167 12.9667 8.5 12 8.5C11.0333 8.5 10.2083 8.84167 9.525 9.525C8.84167 10.2083 8.5 11.0333 8.5 12C8.5 12.9667 8.84167 13.7917 9.525 14.475C10.2083 15.1583 11.0333 15.5 12 15.5ZM12 17C10.6167 17 9.4375 16.5125 8.4625 15.5375C7.4875 14.5625 7 13.3833 7 12C7 10.6167 7.4875 9.4375 8.4625 8.4625C9.4375 7.4875 10.6167 7 12 7C13.3833 7 14.5625 7.4875 15.5375 8.4625C16.5125 9.4375 17 10.6167 17 12C17 13.3833 16.5125 14.5625 15.5375 15.5375C14.5625 16.5125 13.3833 17 12 17ZM1.75 12.75C1.53333 12.75 1.35417 12.6792 1.2125 12.5375C1.07083 12.3958 1 12.2167 1 12C1 11.7833 1.07083 11.6042 1.2125 11.4625C1.35417 11.3208 1.53333 11.25 1.75 11.25H4.25C4.46667 11.25 4.64583 11.3208 4.7875 11.4625C4.92917 11.6042 5 11.7833 5 12C5 12.2167 4.92917 12.3958 4.7875 12.5375C4.64583 12.6792 4.46667 12.75 4.25 12.75H1.75ZM19.75 12.75C19.5333 12.75 19.3542 12.6792 19.2125 12.5375C19.0708 12.3958 19 12.2167 19 12C19 11.7833 19.0708 11.6042 19.2125 11.4625C19.3542 11.3208 19.5333 11.25 19.75 11.25H22.25C22.4667 11.25 22.6458 11.3208 22.7875 11.4625C22.9292 11.6042 23 11.7833 23 12C23 12.2167 22.9292 12.3958 22.7875 12.5375C22.6458 12.6792 22.4667 12.75 22.25 12.75H19.75ZM12 5C11.7833 5 11.6042 4.92917 11.4625 4.7875C11.3208 4.64583 11.25 4.46667 11.25 4.25V1.75C11.25 1.53333 11.3208 1.35417 11.4625 1.2125C11.6042 1.07083 11.7833 1 12 1C12.2167 1 12.3958 1.07083 12.5375 1.2125C12.6792 1.35417 12.75 1.53333 12.75 1.75V4.25C12.75 4.46667 12.6792 4.64583 12.5375 4.7875C12.3958 4.92917 12.2167 5 12 5ZM12 23C11.7833 23 11.6042 22.9292 11.4625 22.7875C11.3208 22.6458 11.25 22.4667 11.25 22.25V19.75C11.25 19.5333 11.3208 19.3542 11.4625 19.2125C11.6042 19.0708 11.7833 19 12 19C12.2167 19 12.3958 19.0708 12.5375 19.2125C12.6792 19.3542 12.75 19.5333 12.75 19.75V22.25C12.75 22.4667 12.6792 22.6458 12.5375 22.7875C12.3958 22.9292 12.2167 23 12 23ZM6 7.05L4.575 5.65C4.425 5.5 4.35417 5.32083 4.3625 5.1125C4.37083 4.90417 4.44167 4.725 4.575 4.575C4.725 4.425 4.90417 4.35 5.1125 4.35C5.32083 4.35 5.5 4.425 5.65 4.575L7.05 6C7.18333 6.15 7.25 6.325 7.25 6.525C7.25 6.725 7.18333 6.89167 7.05 7.025C6.91667 7.175 6.74583 7.25 6.5375 7.25C6.32917 7.25 6.15 7.18333 6 7.05ZM18.35 19.425L16.95 18C16.8167 17.85 16.75 17.6708 16.75 17.4625C16.75 17.2542 16.825 17.0833 16.975 16.95C17.1083 16.8 17.275 16.725 17.475 16.725C17.675 16.725 17.85 16.8 18 16.95L19.425 18.35C19.575 18.5 19.6458 18.6792 19.6375 18.8875C19.6292 19.0958 19.5583 19.275 19.425 19.425C19.275 19.575 19.0958 19.65 18.8875 19.65C18.6792 19.65 18.5 19.575 18.35 19.425ZM16.95 7.05C16.8 6.9 16.725 6.725 16.725 6.525C16.725 6.325 16.8 6.15 16.95 6L18.35 4.575C18.5 4.425 18.6792 4.35417 18.8875 4.3625C19.0958 4.37083 19.275 4.44167 19.425 4.575C19.575 4.725 19.65 4.90417 19.65 5.1125C19.65 5.32083 19.575 5.5 19.425 5.65L18 7.05C17.8667 7.18333 17.6958 7.25 17.4875 7.25C17.2792 7.25 17.1 7.18333 16.95 7.05ZM4.575 19.425C4.425 19.275 4.35 19.0958 4.35 18.8875C4.35 18.6792 4.425 18.5 4.575 18.35L6 16.95C6.15 16.8 6.325 16.725 6.525 16.725C6.725 16.725 6.9 16.8 7.05 16.95C7.2 17.1 7.275 17.275 7.275 17.475C7.275 17.675 7.2 17.85 7.05 18L5.65 19.425C5.5 19.575 5.32083 19.6458 5.1125 19.6375C4.90417 19.6292 4.725 19.5583 4.575 19.425Z"/>
    </symbol>

    <symbol id="darkmode-icon" viewBox="0 0 21 21">
        <path d="M12 21.0001C9.5 21.0001 7.375 20.1251 5.625 18.3751C3.875 16.6251 3 14.5001 3 12.0001C3 9.75011 3.6625 7.84178 4.9875 6.27511C6.3125 4.70844 8.05 3.70011 10.2 3.25011C10.8833 3.11678 11.35 3.23344 11.6 3.60011C11.85 3.96678 11.8417 4.46678 11.575 5.10011C11.425 5.48344 11.3083 5.87511 11.225 6.27511C11.1417 6.67511 11.1 7.08344 11.1 7.50011C11.1 9.00011 11.625 10.2751 12.675 11.3251C13.725 12.3751 15 12.9001 16.5 12.9001C16.9167 12.9001 17.3208 12.8626 17.7125 12.7876C18.1042 12.7126 18.4833 12.6084 18.85 12.4751C19.5667 12.2084 20.1 12.2209 20.45 12.5126C20.8 12.8043 20.8917 13.3001 20.725 14.0001C20.275 16.0168 19.2667 17.6876 17.7 19.0126C16.1333 20.3376 14.2333 21.0001 12 21.0001ZM12 19.5001C13.8167 19.5001 15.4 18.9376 16.75 17.8126C18.1 16.6876 18.9417 15.3668 19.275 13.8501C18.8583 14.0334 18.4125 14.1709 17.9375 14.2626C17.4625 14.3543 16.9833 14.4001 16.5 14.4001C14.5833 14.4001 12.9542 13.7293 11.6125 12.3876C10.2708 11.0459 9.6 9.41678 9.6 7.50011C9.6 7.10011 9.64167 6.67094 9.725 6.21261C9.80833 5.75428 9.95833 5.23344 10.175 4.65011C8.54167 5.10011 7.1875 6.01261 6.1125 7.38761C5.0375 8.76261 4.5 10.3001 4.5 12.0001C4.5 14.0834 5.22917 15.8543 6.6875 17.3126C8.14583 18.7709 9.91667 19.5001 12 19.5001Z"/>
    </symbol>

    <symbol id="download-icon" viewBox="0 0 17 17">
        <path d="M2.92188 14.875C2.42874 14.875 1.9558 14.6791 1.6071 14.3304C1.2584 13.9817 1.0625 13.5088 1.0625 13.0156V10.3594C1.0625 10.148 1.14646 9.94534 1.2959 9.7959C1.44534 9.64646 1.64803 9.5625 1.85938 9.5625C2.07072 9.5625 2.27341 9.64646 2.42285 9.7959C2.57229 9.94534 2.65625 10.148 2.65625 10.3594V13.0156C2.65625 13.1623 2.77525 13.2812 2.92188 13.2812H14.0781C14.1486 13.2812 14.2161 13.2533 14.266 13.2035C14.3158 13.1536 14.3438 13.0861 14.3438 13.0156V10.3594C14.3438 10.148 14.4277 9.94534 14.5771 9.7959C14.7266 9.64646 14.9293 9.5625 15.1406 9.5625C15.352 9.5625 15.5547 9.64646 15.7041 9.7959C15.8535 9.94534 15.9375 10.148 15.9375 10.3594V13.0156C15.9375 13.5088 15.7416 13.9817 15.3929 14.3304C15.0442 14.6791 14.5713 14.875 14.0781 14.875H2.92188Z" />
        <path d="M7.70312 8.16956V2.125C7.70312 1.91366 7.78707 1.71097 7.93652 1.56152C8.08596 1.41208 8.28865 1.32813 8.49999 1.32812C8.71134 1.32812 8.91402 1.41208 9.06347 1.56152C9.21291 1.71097 9.29687 1.91366 9.29687 2.125V8.16956L11.39 6.0775C11.4639 6.00355 11.5517 5.94489 11.6484 5.90487C11.745 5.86485 11.8485 5.84425 11.9531 5.84425C12.0577 5.84425 12.1613 5.86485 12.2579 5.90487C12.3545 5.94489 12.4423 6.00355 12.5162 6.0775C12.5902 6.15145 12.6489 6.23924 12.6889 6.33586C12.7289 6.43249 12.7495 6.53604 12.7495 6.64062C12.7495 6.74521 12.7289 6.84876 12.6889 6.94539C12.6489 7.04201 12.5902 7.1298 12.5162 7.20375L9.06312 10.6569C8.9137 10.8061 8.71116 10.8899 8.49999 10.8899C8.28882 10.8899 8.08628 10.8061 7.93687 10.6569L4.48374 7.20375C4.40979 7.1298 4.35113 7.04201 4.31111 6.94539C4.27109 6.84876 4.25049 6.74521 4.25049 6.64062C4.25049 6.53604 4.27109 6.43249 4.31111 6.33586C4.35113 6.23924 4.40979 6.15145 4.48374 6.0775C4.55769 6.00355 4.64549 5.94489 4.74211 5.90487C4.83873 5.86485 4.94229 5.84425 5.04687 5.84425C5.15145 5.84425 5.25501 5.86485 5.35163 5.90487C5.44825 5.94489 5.53604 6.00355 5.60999 6.0775L7.70312 8.16956Z"/>
    </symbol>

    <symbol id="linkedin-icon" viewBox="0 0 17 17">
        <path d="M13.4583 2.125C13.8341 2.125 14.1944 2.27426 14.4601 2.53993C14.7257 2.80561 14.875 3.16594 14.875 3.54167V13.4583C14.875 13.8341 14.7257 14.1944 14.4601 14.4601C14.1944 14.7257 13.8341 14.875 13.4583 14.875H3.54167C3.16594 14.875 2.80561 14.7257 2.53993 14.4601C2.27426 14.1944 2.125 13.8341 2.125 13.4583V3.54167C2.125 3.16594 2.27426 2.80561 2.53993 2.53993C2.80561 2.27426 3.16594 2.125 3.54167 2.125H13.4583ZM13.1042 13.1042V9.35C13.1042 8.73757 12.8609 8.15023 12.4278 7.71717C11.9948 7.28412 11.4074 7.04083 10.795 7.04083C10.1929 7.04083 9.49167 7.40917 9.15167 7.96167V7.17542H7.17542V13.1042H9.15167V9.61208C9.15167 9.06667 9.59083 8.62042 10.1363 8.62042C10.3993 8.62042 10.6515 8.7249 10.8375 8.91087C11.0234 9.09684 11.1279 9.34908 11.1279 9.61208V13.1042H13.1042ZM4.87333 6.06333C5.18894 6.06333 5.49162 5.93796 5.71479 5.71479C5.93796 5.49162 6.06333 5.18894 6.06333 4.87333C6.06333 4.21458 5.53208 3.67625 4.87333 3.67625C4.55585 3.67625 4.25136 3.80237 4.02687 4.02687C3.80237 4.25136 3.67625 4.55585 3.67625 4.87333C3.67625 5.53208 4.21458 6.06333 4.87333 6.06333ZM5.85792 13.1042V7.17542H3.89583V13.1042H5.85792Z"/>
    </symbol>

    <symbol id="github-icon" viewBox="0 0 17 17">
        <path d="M8.49996 1.41666C7.56976 1.41666 6.64867 1.59987 5.78928 1.95584C4.9299 2.31181 4.14903 2.83357 3.49129 3.49132C2.1629 4.8197 1.41663 6.62137 1.41663 8.49999C1.41663 11.6308 3.44954 14.2871 6.26163 15.2292C6.61579 15.2858 6.72913 15.0662 6.72913 14.875V13.6779C4.76704 14.1029 4.34913 12.7287 4.34913 12.7287C4.02329 11.9071 3.56288 11.6875 3.56288 11.6875C2.91829 11.2483 3.61246 11.2625 3.61246 11.2625C4.32079 11.3121 4.69621 11.9921 4.69621 11.9921C5.31246 13.0687 6.35371 12.75 6.75746 12.58C6.82121 12.1196 7.00538 11.8079 7.20371 11.6308C5.63121 11.4537 3.98079 10.8446 3.98079 8.14582C3.98079 7.35957 4.24996 6.72916 4.71038 6.22624C4.63954 6.04916 4.39163 5.31249 4.78121 4.35624C4.78121 4.35624 5.37621 4.16499 6.72913 5.07874C7.28871 4.92291 7.89788 4.84499 8.49996 4.84499C9.10204 4.84499 9.71121 4.92291 10.2708 5.07874C11.6237 4.16499 12.2187 4.35624 12.2187 4.35624C12.6083 5.31249 12.3604 6.04916 12.2895 6.22624C12.75 6.72916 13.0191 7.35957 13.0191 8.14582C13.0191 10.8517 11.3616 11.4467 9.78204 11.6237C10.037 11.8433 10.2708 12.2754 10.2708 12.9342V14.875C10.2708 15.0662 10.3841 15.2929 10.7454 15.2292C13.5575 14.28 15.5833 11.6308 15.5833 8.49999C15.5833 7.56979 15.4001 6.6487 15.0441 5.78932C14.6881 4.92993 14.1664 4.14907 13.5086 3.49132C12.8509 2.83357 12.07 2.31181 11.2106 1.95584C10.3512 1.59987 9.43016 1.41666 8.49996 1.41666Z"/>
    </symbol>

    <symbol id="codepen-icon" viewBox="0 0 17 17">
        <path fill-rule="evenodd" clip-rule="evenodd" d="M9.20834 2.28651L14.8736 5.55688C15.0889 5.68122 15.2678 5.86005 15.3921 6.0754C15.5165 6.29076 15.5819 6.53504 15.5819 6.78372V10.2163C15.5819 10.465 15.5165 10.7093 15.3921 10.9246C15.2678 11.14 15.0889 11.3188 14.8736 11.4431L9.20834 14.7135C8.99298 14.8378 8.74868 14.9033 8.50001 14.9033C8.25133 14.9033 8.00703 14.8378 7.79167 14.7135L2.12642 11.4431C1.91107 11.3188 1.73224 11.14 1.6079 10.9246C1.48356 10.7093 1.4181 10.465 1.41809 10.2163V6.78372C1.4181 6.53504 1.48356 6.29076 1.6079 6.0754C1.73224 5.86005 1.91107 5.68122 2.12642 5.55688L7.79167 2.28651C8.00703 2.16217 8.25133 2.09671 8.50001 2.09671C8.74868 2.09671 8.99298 2.16217 9.20834 2.28651ZM5.80692 9.31813L3.54309 10.625L7.79167 13.078V10.4642L5.80692 9.31813ZM11.1931 9.31813L9.20834 10.4635V13.0773L13.4569 10.625L11.1931 9.31813ZM2.83476 7.60184V9.39817L4.39026 8.50001L2.83476 7.60184ZM14.1653 7.60184L12.6098 8.50001L14.1653 9.39817V7.60184ZM8.50001 7.76334L7.22359 8.50001L8.50001 9.23667L9.77642 8.50001L8.50001 7.76334ZM7.79167 3.92205L3.54309 6.37501L5.80692 7.68188L7.79167 6.53651V3.92205ZM9.20834 3.92205V6.5358L11.1931 7.68188L13.4569 6.37501L9.20834 3.92205Z"/>    
    </symbol>

</svg>
