<svg xmlns="http://www.w3.org/2000/svg" style="display: none;">
    <symbol id="main-icon" viewBox="0 0 60 60">
        <path d="M1.55277 34.42L10.6608 25.036C11.6421 24.0547 12.7461 23.564 13.9728 23.564C14.4328 23.564 14.8774 23.702 15.3068 23.978C15.7668 24.254 16.0888 24.6527 16.2728 25.174L14.5708 26.83L7.80877 33.822L12.0868 39.572C12.4548 40.032 12.6388 40.5227 12.6388 41.044C12.6388 41.5347 12.5621 41.9947 12.4088 42.424C12.2554 42.8227 12.0101 43.1907 11.6728 43.528C10.9981 44.2947 10.0321 44.7087 8.77477 44.77L1.55277 34.42ZM23.7629 51.854C23.7629 51.302 23.9009 50.6273 24.1769 49.83L39.2189 8.292C39.7709 8.2 40.5835 8.154 41.6569 8.154C42.7609 8.154 43.6349 8.30733 44.2789 8.614C44.9535 8.89 45.2909 9.47266 45.2909 10.362C45.2909 11.1287 45.0455 12.2173 44.5549 13.628L29.9269 54.016C29.6815 54.1387 28.8382 54.2 27.3969 54.2C24.9742 54.2 23.7629 53.418 23.7629 51.854ZM42.2646 43.114L45.3006 40.124L50.7286 34.466L47.6926 30.372C47.2326 29.7893 46.8186 29.2527 46.4506 28.762C46.0826 28.2713 45.8986 27.7807 45.8986 27.29C45.8986 26.7993 45.9752 26.3393 46.1286 25.91C46.2819 25.4807 46.5272 25.0973 46.8646 24.76C47.5699 23.9933 48.5359 23.5793 49.7626 23.518L56.9846 33.868L47.8766 43.252C46.8952 44.2333 45.7912 44.724 44.5646 44.724C44.1046 44.724 43.6446 44.586 43.1846 44.31C42.7552 44.034 42.4486 43.6353 42.2646 43.114Z"/>
    </symbol>

    <symbol id="lightmode-icon" viewBox="0 0 21 21">
        <path d="M12 15.5C12.9667 15.5 13.7917 15.1583 14.475 14.475C15.1583 13.7917 15.5 12.9667 15.5 12C15.5 11.0333 15.1583 10.2083 14.475 9.525C13.7917 8.84167 12.9667 8.5 12 8.5C11.0333 8.5 10.2083 8.84167 9.525 9.525C8.84167 10.2083 8.5 11.0333 8.5 12C8.5 12.9667 8.84167 13.7917 9.525 14.475C10.2083 15.1583 11.0333 15.5 12 15.5ZM12 17C10.6167 17 9.4375 16.5125 8.4625 15.5375C7.4875 14.5625 7 13.3833 7 12C7 10.6167 7.4875 9.4375 8.4625 8.4625C9.4375 7.4875 10.6167 7 12 7C13.3833 7 14.5625 7.4875 15.5375 8.4625C16.5125 9.4375 17 10.6167 17 12C17 13.3833 16.5125 14.5625 15.5375 15.5375C14.5625 16.5125 13.3833 17 12 17ZM1.75 12.75C1.53333 12.75 1.35417 12.6792 1.2125 12.5375C1.07083 12.3958 1 12.2167 1 12C1 11.7833 1.07083 11.6042 1.2125 11.4625C1.35417 11.3208 1.53333 11.25 1.75 11.25H4.25C4.46667 11.25 4.64583 11.3208 4.7875 11.4625C4.92917 11.6042 5 11.7833 5 12C5 12.2167 4.92917 12.3958 4.7875 12.5375C4.64583 12.6792 4.46667 12.75 4.25 12.75H1.75ZM19.75 12.75C19.5333 12.75 19.3542 12.6792 19.2125 12.5375C19.0708 12.3958 19 12.2167 19 12C19 11.7833 19.0708 11.6042 19.2125 11.4625C19.3542 11.3208 19.5333 11.25 19.75 11.25H22.25C22.4667 11.25 22.6458 11.3208 22.7875 11.4625C22.9292 11.6042 23 11.7833 23 12C23 12.2167 22.9292 12.3958 22.7875 12.5375C22.6458 12.6792 22.4667 12.75 22.25 12.75H19.75ZM12 5C11.7833 5 11.6042 4.92917 11.4625 4.7875C11.3208 4.64583 11.25 4.46667 11.25 4.25V1.75C11.25 1.53333 11.3208 1.35417 11.4625 1.2125C11.6042 1.07083 11.7833 1 12 1C12.2167 1 12.3958 1.07083 12.5375 1.2125C12.6792 1.35417 12.75 1.53333 12.75 1.75V4.25C12.75 4.46667 12.6792 4.64583 12.5375 4.7875C12.3958 4.92917 12.2167 5 12 5ZM12 23C11.7833 23 11.6042 22.9292 11.4625 22.7875C11.3208 22.6458 11.25 22.4667 11.25 22.25V19.75C11.25 19.5333 11.3208 19.3542 11.4625 19.2125C11.6042 19.0708 11.7833 19 12 19C12.2167 19 12.3958 19.0708 12.5375 19.2125C12.6792 19.3542 12.75 19.5333 12.75 19.75V22.25C12.75 22.4667 12.6792 22.6458 12.5375 22.7875C12.3958 22.9292 12.2167 23 12 23ZM6 7.05L4.575 5.65C4.425 5.5 4.35417 5.32083 4.3625 5.1125C4.37083 4.90417 4.44167 4.725 4.575 4.575C4.725 4.425 4.90417 4.35 5.1125 4.35C5.32083 4.35 5.5 4.425 5.65 4.575L7.05 6C7.18333 6.15 7.25 6.325 7.25 6.525C7.25 6.725 7.18333 6.89167 7.05 7.025C6.91667 7.175 6.74583 7.25 6.5375 7.25C6.32917 7.25 6.15 7.18333 6 7.05ZM18.35 19.425L16.95 18C16.8167 17.85 16.75 17.6708 16.75 17.4625C16.75 17.2542 16.825 17.0833 16.975 16.95C17.1083 16.8 17.275 16.725 17.475 16.725C17.675 16.725 17.85 16.8 18 16.95L19.425 18.35C19.575 18.5 19.6458 18.6792 19.6375 18.8875C19.6292 19.0958 19.5583 19.275 19.425 19.425C19.275 19.575 19.0958 19.65 18.8875 19.65C18.6792 19.65 18.5 19.575 18.35 19.425ZM16.95 7.05C16.8 6.9 16.725 6.725 16.725 6.525C16.725 6.325 16.8 6.15 16.95 6L18.35 4.575C18.5 4.425 18.6792 4.35417 18.8875 4.3625C19.0958 4.37083 19.275 4.44167 19.425 4.575C19.575 4.725 19.65 4.90417 19.65 5.1125C19.65 5.32083 19.575 5.5 19.425 5.65L18 7.05C17.8667 7.18333 17.6958 7.25 17.4875 7.25C17.2792 7.25 17.1 7.18333 16.95 7.05ZM4.575 19.425C4.425 19.275 4.35 19.0958 4.35 18.8875C4.35 18.6792 4.425 18.5 4.575 18.35L6 16.95C6.15 16.8 6.325 16.725 6.525 16.725C6.725 16.725 6.9 16.8 7.05 16.95C7.2 17.1 7.275 17.275 7.275 17.475C7.275 17.675 7.2 17.85 7.05 18L5.65 19.425C5.5 19.575 5.32083 19.6458 5.1125 19.6375C4.90417 19.6292 4.725 19.5583 4.575 19.425Z"/>
    </symbol>

    <symbol id="darkmode-icon" viewBox="0 0 21 21">
        <path d="M12 21.0001C9.5 21.0001 7.375 20.1251 5.625 18.3751C3.875 16.6251 3 14.5001 3 12.0001C3 9.75011 3.6625 7.84178 4.9875 6.27511C6.3125 4.70844 8.05 3.70011 10.2 3.25011C10.8833 3.11678 11.35 3.23344 11.6 3.60011C11.85 3.96678 11.8417 4.46678 11.575 5.10011C11.425 5.48344 11.3083 5.87511 11.225 6.27511C11.1417 6.67511 11.1 7.08344 11.1 7.50011C11.1 9.00011 11.625 10.2751 12.675 11.3251C13.725 12.3751 15 12.9001 16.5 12.9001C16.9167 12.9001 17.3208 12.8626 17.7125 12.7876C18.1042 12.7126 18.4833 12.6084 18.85 12.4751C19.5667 12.2084 20.1 12.2209 20.45 12.5126C20.8 12.8043 20.8917 13.3001 20.725 14.0001C20.275 16.0168 19.2667 17.6876 17.7 19.0126C16.1333 20.3376 14.2333 21.0001 12 21.0001ZM12 19.5001C13.8167 19.5001 15.4 18.9376 16.75 17.8126C18.1 16.6876 18.9417 15.3668 19.275 13.8501C18.8583 14.0334 18.4125 14.1709 17.9375 14.2626C17.4625 14.3543 16.9833 14.4001 16.5 14.4001C14.5833 14.4001 12.9542 13.7293 11.6125 12.3876C10.2708 11.0459 9.6 9.41678 9.6 7.50011C9.6 7.10011 9.64167 6.67094 9.725 6.21261C9.80833 5.75428 9.95833 5.23344 10.175 4.65011C8.54167 5.10011 7.1875 6.01261 6.1125 7.38761C5.0375 8.76261 4.5 10.3001 4.5 12.0001C4.5 14.0834 5.22917 15.8543 6.6875 17.3126C8.14583 18.7709 9.91667 19.5001 12 19.5001Z"/>
    </symbol>

    <symbol id="download-icon" viewBox="0 0 17 17">
        <path d="M2.92188 14.875C2.42874 14.875 1.9558 14.6791 1.6071 14.3304C1.2584 13.9817 1.0625 13.5088 1.0625 13.0156V10.3594C1.0625 10.148 1.14646 9.94534 1.2959 9.7959C1.44534 9.64646 1.64803 9.5625 1.85938 9.5625C2.07072 9.5625 2.27341 9.64646 2.42285 9.7959C2.57229 9.94534 2.65625 10.148 2.65625 10.3594V13.0156C2.65625 13.1623 2.77525 13.2812 2.92188 13.2812H14.0781C14.1486 13.2812 14.2161 13.2533 14.266 13.2035C14.3158 13.1536 14.3438 13.0861 14.3438 13.0156V10.3594C14.3438 10.148 14.4277 9.94534 14.5771 9.7959C14.7266 9.64646 14.9293 9.5625 15.1406 9.5625C15.352 9.5625 15.5547 9.64646 15.7041 9.7959C15.8535 9.94534 15.9375 10.148 15.9375 10.3594V13.0156C15.9375 13.5088 15.7416 13.9817 15.3929 14.3304C15.0442 14.6791 14.5713 14.875 14.0781 14.875H2.92188Z" />
        <path d="M7.70312 8.16956V2.125C7.70312 1.91366 7.78707 1.71097 7.93652 1.56152C8.08596 1.41208 8.28865 1.32813 8.49999 1.32812C8.71134 1.32812 8.91402 1.41208 9.06347 1.56152C9.21291 1.71097 9.29687 1.91366 9.29687 2.125V8.16956L11.39 6.0775C11.4639 6.00355 11.5517 5.94489 11.6484 5.90487C11.745 5.86485 11.8485 5.84425 11.9531 5.84425C12.0577 5.84425 12.1613 5.86485 12.2579 5.90487C12.3545 5.94489 12.4423 6.00355 12.5162 6.0775C12.5902 6.15145 12.6489 6.23924 12.6889 6.33586C12.7289 6.43249 12.7495 6.53604 12.7495 6.64062C12.7495 6.74521 12.7289 6.84876 12.6889 6.94539C12.6489 7.04201 12.5902 7.1298 12.5162 7.20375L9.06312 10.6569C8.9137 10.8061 8.71116 10.8899 8.49999 10.8899C8.28882 10.8899 8.08628 10.8061 7.93687 10.6569L4.48374 7.20375C4.40979 7.1298 4.35113 7.04201 4.31111 6.94539C4.27109 6.84876 4.25049 6.74521 4.25049 6.64062C4.25049 6.53604 4.27109 6.43249 4.31111 6.33586C4.35113 6.23924 4.40979 6.15145 4.48374 6.0775C4.55769 6.00355 4.64549 5.94489 4.74211 5.90487C4.83873 5.86485 4.94229 5.84425 5.04687 5.84425C5.15145 5.84425 5.25501 5.86485 5.35163 5.90487C5.44825 5.94489 5.53604 6.00355 5.60999 6.0775L7.70312 8.16956Z"/>
    </symbol>

    <symbol id="linkedin-icon" viewBox="0 0 17 17">
        <path d="M13.4583 2.125C13.8341 2.125 14.1944 2.27426 14.4601 2.53993C14.7257 2.80561 14.875 3.16594 14.875 3.54167V13.4583C14.875 13.8341 14.7257 14.1944 14.4601 14.4601C14.1944 14.7257 13.8341 14.875 13.4583 14.875H3.54167C3.16594 14.875 2.80561 14.7257 2.53993 14.4601C2.27426 14.1944 2.125 13.8341 2.125 13.4583V3.54167C2.125 3.16594 2.27426 2.80561 2.53993 2.53993C2.80561 2.27426 3.16594 2.125 3.54167 2.125H13.4583ZM13.1042 13.1042V9.35C13.1042 8.73757 12.8609 8.15023 12.4278 7.71717C11.9948 7.28412 11.4074 7.04083 10.795 7.04083C10.1929 7.04083 9.49167 7.40917 9.15167 7.96167V7.17542H7.17542V13.1042H9.15167V9.61208C9.15167 9.06667 9.59083 8.62042 10.1363 8.62042C10.3993 8.62042 10.6515 8.7249 10.8375 8.91087C11.0234 9.09684 11.1279 9.34908 11.1279 9.61208V13.1042H13.1042ZM4.87333 6.06333C5.18894 6.06333 5.49162 5.93796 5.71479 5.71479C5.93796 5.49162 6.06333 5.18894 6.06333 4.87333C6.06333 4.21458 5.53208 3.67625 4.87333 3.67625C4.55585 3.67625 4.25136 3.80237 4.02687 4.02687C3.80237 4.25136 3.67625 4.55585 3.67625 4.87333C3.67625 5.53208 4.21458 6.06333 4.87333 6.06333ZM5.85792 13.1042V7.17542H3.89583V13.1042H5.85792Z"/>
    </symbol>

    <symbol id="github-icon" viewBox="0 0 17 17">
        <path d="M8.49996 1.41666C7.56976 1.41666 6.64867 1.59987 5.78928 1.95584C4.9299 2.31181 4.14903 2.83357 3.49129 3.49132C2.1629 4.8197 1.41663 6.62137 1.41663 8.49999C1.41663 11.6308 3.44954 14.2871 6.26163 15.2292C6.61579 15.2858 6.72913 15.0662 6.72913 14.875V13.6779C4.76704 14.1029 4.34913 12.7287 4.34913 12.7287C4.02329 11.9071 3.56288 11.6875 3.56288 11.6875C2.91829 11.2483 3.61246 11.2625 3.61246 11.2625C4.32079 11.3121 4.69621 11.9921 4.69621 11.9921C5.31246 13.0687 6.35371 12.75 6.75746 12.58C6.82121 12.1196 7.00538 11.8079 7.20371 11.6308C5.63121 11.4537 3.98079 10.8446 3.98079 8.14582C3.98079 7.35957 4.24996 6.72916 4.71038 6.22624C4.63954 6.04916 4.39163 5.31249 4.78121 4.35624C4.78121 4.35624 5.37621 4.16499 6.72913 5.07874C7.28871 4.92291 7.89788 4.84499 8.49996 4.84499C9.10204 4.84499 9.71121 4.92291 10.2708 5.07874C11.6237 4.16499 12.2187 4.35624 12.2187 4.35624C12.6083 5.31249 12.3604 6.04916 12.2895 6.22624C12.75 6.72916 13.0191 7.35957 13.0191 8.14582C13.0191 10.8517 11.3616 11.4467 9.78204 11.6237C10.037 11.8433 10.2708 12.2754 10.2708 12.9342V14.875C10.2708 15.0662 10.3841 15.2929 10.7454 15.2292C13.5575 14.28 15.5833 11.6308 15.5833 8.49999C15.5833 7.56979 15.4001 6.6487 15.0441 5.78932C14.6881 4.92993 14.1664 4.14907 13.5086 3.49132C12.8509 2.83357 12.07 2.31181 11.2106 1.95584C10.3512 1.59987 9.43016 1.41666 8.49996 1.41666Z"/>
    </symbol>

    <symbol id="codepen-icon" viewBox="0 0 17 17">
        <path fill-rule="evenodd" clip-rule="evenodd" d="M9.20834 2.28651L14.8736 5.55688C15.0889 5.68122 15.2678 5.86005 15.3921 6.0754C15.5165 6.29076 15.5819 6.53504 15.5819 6.78372V10.2163C15.5819 10.465 15.5165 10.7093 15.3921 10.9246C15.2678 11.14 15.0889 11.3188 14.8736 11.4431L9.20834 14.7135C8.99298 14.8378 8.74868 14.9033 8.50001 14.9033C8.25133 14.9033 8.00703 14.8378 7.79167 14.7135L2.12642 11.4431C1.91107 11.3188 1.73224 11.14 1.6079 10.9246C1.48356 10.7093 1.4181 10.465 1.41809 10.2163V6.78372C1.4181 6.53504 1.48356 6.29076 1.6079 6.0754C1.73224 5.86005 1.91107 5.68122 2.12642 5.55688L7.79167 2.28651C8.00703 2.16217 8.25133 2.09671 8.50001 2.09671C8.74868 2.09671 8.99298 2.16217 9.20834 2.28651ZM5.80692 9.31813L3.54309 10.625L7.79167 13.078V10.4642L5.80692 9.31813ZM11.1931 9.31813L9.20834 10.4635V13.0773L13.4569 10.625L11.1931 9.31813ZM2.83476 7.60184V9.39817L4.39026 8.50001L2.83476 7.60184ZM14.1653 7.60184L12.6098 8.50001L14.1653 9.39817V7.60184ZM8.50001 7.76334L7.22359 8.50001L8.50001 9.23667L9.77642 8.50001L8.50001 7.76334ZM7.79167 3.92205L3.54309 6.37501L5.80692 7.68188L7.79167 6.53651V3.92205ZM9.20834 3.92205V6.5358L11.1931 7.68188L13.4569 6.37501L9.20834 3.92205Z"/>    
    </symbol>

    <symbol id="arrow-icon" viewBox="0 0 17 17">
        <path d="M13.0377 12.0297L13.0421 4.96006C13.0393 4.82846 13.0105 4.69875 12.9575 4.57835C12.8562 4.33559 12.6633 4.14265 12.4205 4.04139C12.3001 3.98834 12.1704 3.95959 12.0388 3.95679L4.96916 3.96118C4.83733 3.96126 4.70677 3.98731 4.58494 4.03783C4.46311 4.08836 4.3524 4.16237 4.25912 4.25565C4.07074 4.44403 3.96482 4.69944 3.96465 4.96569C3.96449 5.23193 4.07009 5.48721 4.25824 5.67536C4.44639 5.86351 4.70167 5.96912 4.96792 5.96895L9.6268 5.95899L4.25763 11.3282C4.07002 11.5158 3.96452 11.7701 3.96436 12.0353C3.9642 12.3005 4.06937 12.5547 4.25676 12.7421C4.44414 12.9295 4.69837 13.0347 4.96354 13.0345C5.2287 13.0343 5.48307 12.9288 5.67068 12.7412L11.0399 7.37204L11.0299 12.0309C11.0293 12.1629 11.0548 12.2937 11.105 12.4157C11.1552 12.5377 11.229 12.6485 11.3223 12.7418C11.4155 12.8351 11.5264 12.9089 11.6484 12.9591C11.7704 13.0093 11.9012 13.0348 12.0332 13.0342C12.1651 13.0347 12.2959 13.009 12.418 12.9586C12.5401 12.9083 12.651 12.8343 12.7444 12.7409C12.8378 12.6475 12.9118 12.5366 12.9621 12.4145C13.0125 12.2925 13.0381 12.1617 13.0377 12.0297Z"/>
    </symbol>

    <symbol id="web-icon" viewBox="0 0 17 17">
        <path d="M7.86914 0.0232949C6.61074 0.142826 5.67441 0.408451 4.61523 0.946342C3.36016 1.58716 2.23789 2.5899 1.41113 3.81841C0.873242 4.61529 0.378516 5.80396 0.185938 6.74029C0.0431641 7.44419 0.0166016 7.71978 0.0166016 8.50005C0.0166016 9.53599 0.129492 10.2465 0.434961 11.1729C0.610938 11.7008 1.00938 12.5575 1.28164 12.9825C1.76973 13.7495 2.60645 14.6825 3.25391 15.1805C4.29648 15.984 5.44531 16.5286 6.67383 16.8008C7.27813 16.9336 7.64668 16.9735 8.53652 16.9901C9.58574 17.0133 9.69863 16.9934 9.9377 16.751C10.3395 16.3526 10.2564 15.7018 9.76836 15.4163C9.61895 15.3266 9.58906 15.3233 9.05117 15.3067L8.49004 15.2901L8.30742 14.9747C8.075 14.5762 7.78281 13.9354 7.59023 13.4075C7.44082 12.9891 7.17188 12.0561 7.17188 11.9465C7.17188 11.8901 7.21836 11.8868 7.94551 11.8868C8.81543 11.8868 8.8752 11.8735 9.1043 11.6344C9.27031 11.4585 9.34004 11.2825 9.34004 11.0368C9.33672 10.7944 9.22051 10.542 9.03125 10.3893C8.82207 10.2167 8.67598 10.1934 7.73301 10.1934H6.87969L6.85645 10.0108C6.78672 9.42974 6.7834 7.70318 6.85645 7.02915L6.87969 6.80669H8.5H10.117L10.1402 7.04576C10.1502 7.17857 10.1701 7.58033 10.1801 7.9356C10.19 8.32408 10.2166 8.64947 10.2465 8.74908C10.3395 9.09107 10.6682 9.33677 11.0367 9.34009C11.2957 9.34341 11.4949 9.25376 11.6742 9.05786C11.89 8.82544 11.9 8.76236 11.8734 7.88579C11.8635 7.46743 11.8436 7.0524 11.8336 6.96275L11.8104 6.80669H13.4406H15.0709L15.1074 6.92954C15.1672 7.14204 15.2701 7.83599 15.2934 8.18462C15.3033 8.37388 15.2967 8.70259 15.2734 8.94829C15.227 9.44302 15.2502 9.58579 15.4096 9.81822C15.549 10.0208 15.7582 10.1336 16.0338 10.1536C16.2928 10.1702 16.4754 10.1071 16.6746 9.93443C16.8439 9.78501 16.9203 9.57251 16.9635 9.15083C17.1063 7.70982 16.8041 6.12935 16.1168 4.75142C15.7051 3.92134 15.2436 3.26724 14.5961 2.59986C13.8789 1.85611 13.175 1.34478 12.2354 0.879936C11.2525 0.39517 10.3361 0.132865 9.24707 0.0332559C8.9084 0.00337305 8.14141 -0.00326757 7.86914 0.0232949ZM8.7125 2.10845C9.10098 2.80904 9.47285 3.74536 9.69531 4.60201C9.75176 4.82115 9.8082 5.02368 9.81484 5.05357C9.83145 5.11001 9.75176 5.11333 8.5 5.11333H7.16523L7.18516 4.9938C7.23496 4.7315 7.48398 3.90806 7.64336 3.48638C7.8957 2.80904 8.41367 1.75982 8.49336 1.75982C8.50664 1.75982 8.60625 1.91587 8.7125 2.10845ZM11.2592 2.29107C12.3781 2.77915 13.4107 3.6524 14.1279 4.7149L14.3869 5.09673L12.999 5.10669C12.2354 5.11001 11.5979 5.10337 11.5879 5.09009C11.5746 5.07349 11.5082 4.82447 11.4385 4.53228C11.2957 3.91802 10.9969 2.9983 10.7744 2.47369C10.6881 2.27115 10.6117 2.08853 10.6018 2.06529C10.5818 2.0188 10.8275 2.10513 11.2592 2.29107ZM6.36504 2.09849C5.97324 3.00162 5.65117 4.00767 5.42871 5.03697L5.41211 5.11333H4.01426H2.61973L2.65957 5.03697C2.77246 4.83111 3.12441 4.34302 3.3834 4.04087C4.05742 3.25396 5.11992 2.51021 6.06621 2.15826C6.36172 2.04869 6.38828 2.04204 6.36504 2.09849ZM5.16973 6.85318C5.15977 6.87974 5.1332 7.25826 5.10996 7.69986C5.08008 8.32076 5.08008 8.67935 5.10996 9.30025C5.1332 9.74185 5.15977 10.1204 5.16973 10.1469C5.18301 10.1868 4.9373 10.1934 3.55605 10.1934H1.9291L1.89258 10.0573C1.81621 9.77505 1.75977 9.41646 1.72324 8.9649C1.67012 8.33072 1.73652 7.51724 1.89258 6.94283L1.9291 6.80669H3.55605C4.9373 6.80669 5.18301 6.81333 5.16973 6.85318ZM5.42871 11.9598C5.65117 12.9924 5.96328 13.9985 6.27539 14.6924C6.33184 14.8186 6.37168 14.9249 6.36504 14.9315C6.33848 14.9581 5.84707 14.7588 5.47852 14.5762C4.4293 14.0483 3.5627 13.2979 2.91523 12.3516C2.7957 12.179 2.67949 12.003 2.65957 11.9598L2.61973 11.8868H4.01426H5.41211L5.42871 11.9598Z"/>
        <path d="M10.9935 10.7811C10.8242 10.8674 10.7412 11.0002 10.7478 11.1662C10.7544 11.3488 12.8927 16.0637 13.0421 16.2264C13.1251 16.3193 13.1617 16.3359 13.2945 16.3359C13.5867 16.3359 13.6033 16.316 14.0482 15.4295C14.2707 14.9879 14.4832 14.5895 14.523 14.5496C14.5595 14.5064 14.9613 14.284 15.4128 14.0582C16.3193 13.6033 16.3359 13.5867 16.3359 13.2945C16.3359 13.1617 16.3193 13.1252 16.2296 13.0422C16.1134 12.9359 11.3919 10.7744 11.206 10.7412C11.1429 10.7279 11.0632 10.7445 10.9935 10.7811Z"/>
    </symbol>

    <symbol id="figma-icon" viewBox="0 0 17 17">
        <path fill-rule="evenodd" clip-rule="evenodd" d="M10.625 1.41669C11.2005 1.41665 11.7624 1.59188 12.2359 1.91906C12.7094 2.24624 13.072 2.70985 13.2755 3.2482C13.479 3.78655 13.5137 4.37411 13.3751 4.93268C13.2364 5.49125 12.9309 5.99435 12.4993 6.37502C13.0272 6.83956 13.3636 7.48383 13.4429 8.18257C13.5222 8.8813 13.3388 9.58457 12.9285 10.1556C12.5181 10.7267 11.91 11.1247 11.2224 11.2724C10.5349 11.42 9.81698 11.3067 9.20835 10.9544V12.75C9.20832 13.2235 9.08966 13.6893 8.8632 14.1051C8.63674 14.5209 8.30971 14.8733 7.91198 15.1301C7.51425 15.3869 7.05851 15.54 6.58639 15.5753C6.11427 15.6106 5.64082 15.5271 5.20931 15.3323C4.7778 15.1375 4.40197 14.8377 4.11617 14.4602C3.83037 14.0828 3.64371 13.6398 3.57324 13.1716C3.50277 12.7034 3.55074 12.2251 3.71277 11.7802C3.87479 11.3354 4.14571 10.9382 4.50076 10.625C4.19931 10.3591 3.95789 10.0321 3.79253 9.66574C3.62717 9.29936 3.54166 8.90199 3.54168 8.50002C3.54166 8.09805 3.62717 7.70068 3.79253 7.3343C3.95789 6.96792 4.19931 6.64092 4.50076 6.37502C4.06912 5.99435 3.76364 5.49125 3.62497 4.93268C3.48631 4.37411 3.52103 3.78655 3.72453 3.2482C3.92802 2.70985 4.29064 2.24624 4.76412 1.91906C5.2376 1.59188 5.79949 1.41665 6.37501 1.41669H10.625ZM7.79168 11.3334H6.37501C6.09482 11.3334 5.82093 11.4164 5.58796 11.5721C5.35499 11.7278 5.17341 11.949 5.06618 12.2079C4.95896 12.4667 4.93091 12.7516 4.98557 13.0264C5.04023 13.3012 5.17515 13.5536 5.37328 13.7518C5.5714 13.9499 5.82383 14.0848 6.09864 14.1395C6.37344 14.1941 6.65829 14.1661 6.91715 14.0588C7.17601 13.9516 7.39726 13.77 7.55293 13.5371C7.70859 13.3041 7.79168 13.0302 7.79168 12.75V11.3334ZM7.79168 7.08335H6.37501C5.99929 7.08335 5.63896 7.23261 5.37328 7.49829C5.1076 7.76396 4.95835 8.1243 4.95835 8.50002C4.95835 8.87574 5.1076 9.23608 5.37328 9.50175C5.63896 9.76743 5.99929 9.91669 6.37501 9.91669H7.79168V7.08335ZM10.625 7.08335C10.2493 7.08335 9.88896 7.23261 9.62328 7.49829C9.3576 7.76396 9.20835 8.1243 9.20835 8.50002C9.20835 8.87574 9.3576 9.23608 9.62328 9.50175C9.88896 9.76743 10.2493 9.91669 10.625 9.91669C11.0007 9.91669 11.3611 9.76743 11.6267 9.50175C11.8924 9.23608 12.0417 8.87574 12.0417 8.50002C12.0417 8.1243 11.8924 7.76396 11.6267 7.49829C11.3611 7.23261 11.0007 7.08335 10.625 7.08335ZM10.625 2.83335H9.20835V5.66669H10.625C10.9926 5.66833 11.3465 5.52701 11.6118 5.27259C11.8772 5.01816 12.0332 4.67055 12.047 4.30319C12.0608 3.93583 11.9313 3.5775 11.6857 3.30389C11.4402 3.03028 11.098 2.86282 10.7313 2.8369L10.625 2.83335ZM7.79168 2.83335H6.37501C5.99929 2.83335 5.63896 2.98261 5.37328 3.24829C5.1076 3.51396 4.95835 3.8743 4.95835 4.25002C4.95835 4.62574 5.1076 4.98608 5.37328 5.25175C5.63896 5.51743 5.99929 5.66669 6.37501 5.66669H7.79168V2.83335Z"/>
    </symbol>

    <symbol id="education-icon" viewBox="0 0 30 24">
        <path d="M15 1.5C14.6203 1.5 14.2453 1.56562 13.8891 1.69219L0.740614 6.44062C0.295302 6.60469 -1.09092e-05 7.02656 -1.09092e-05 7.5C-1.09092e-05 7.97344 0.295302 8.39531 0.740614 8.55938L3.45468 9.53906C2.68593 10.7484 2.24999 12.1781 2.24999 13.6828V15C2.24999 16.3313 1.74374 17.7047 1.20468 18.7875C0.899989 19.3969 0.553114 19.9969 0.149989 20.55C-1.09076e-05 20.7516 -0.0421984 21.0141 0.0421766 21.2531C0.126552 21.4922 0.323427 21.6703 0.567177 21.7313L3.56718 22.4813C3.76405 22.5328 3.97499 22.4953 4.14843 22.3875C4.32186 22.2797 4.44374 22.1016 4.48124 21.9C4.88436 19.8938 4.6828 18.0938 4.3828 16.8047C4.2328 16.1391 4.03124 15.4594 3.74999 14.8359V13.6828C3.74999 12.2672 4.22811 10.9312 5.0578 9.8625C5.66249 9.13594 6.4453 8.55 7.36405 8.18906L14.7234 5.29688C15.1078 5.14687 15.5437 5.33437 15.6937 5.71875C15.8437 6.10313 15.6562 6.53906 15.2719 6.68906L7.91249 9.58125C7.33124 9.81094 6.8203 10.1625 6.40311 10.5938L13.8844 13.2938C14.2406 13.4203 14.6156 13.4859 14.9953 13.4859C15.375 13.4859 15.75 13.4203 16.1062 13.2938L29.2594 8.55938C29.7047 8.4 30 7.97344 30 7.5C30 7.02656 29.7047 6.60469 29.2594 6.44062L16.1109 1.69219C15.7547 1.56562 15.3797 1.5 15 1.5ZM5.99999 19.125C5.99999 20.7797 10.0312 22.5 15 22.5C19.9687 22.5 24 20.7797 24 19.125L23.2828 12.3094L16.6172 14.7188C16.0969 14.9062 15.5484 15 15 15C14.4516 15 13.8984 14.9062 13.3828 14.7188L6.71718 12.3094L5.99999 19.125Z"/>
    </symbol>

    <symbol id="work-icon" viewBox="0 0 30 30">
        <path d="M10.7812 2.8125H19.2188C19.4766 2.8125 19.6875 3.02344 19.6875 3.28125V5.625H10.3125V3.28125C10.3125 3.02344 10.5234 2.8125 10.7812 2.8125ZM7.5 3.28125V5.625H3.75C1.68164 5.625 0 7.30664 0 9.375V15H11.25H18.75H30V9.375C30 7.30664 28.3184 5.625 26.25 5.625H22.5V3.28125C22.5 1.4707 21.0293 0 19.2188 0H10.7812C8.9707 0 7.5 1.4707 7.5 3.28125ZM30 16.875H18.75V18.75C18.75 19.7871 17.9121 20.625 16.875 20.625H13.125C12.0879 20.625 11.25 19.7871 11.25 18.75V16.875H0V24.375C0 26.4434 1.68164 28.125 3.75 28.125H26.25C28.3184 28.125 30 26.4434 30 24.375V16.875Z"/>
    </symbol>

</svg>
