<svg xmlns="http://www.w3.org/2000/svg" style="display: none;">
    <symbol id="androidstudio-icon" viewBox="0 0 128 128">
        <path fill="#073042" d="M51.3 17.7H23.2C17.6 17.7 13 22.3 13 28c-.2 5.5 4.2 10.1 9.7 10.3h28.9l-.3-20.6z"></path><path fill="#4285F4" d="M115 109.3H23.2c-5.7 0-10.2-4.6-10.2-10.3V27.9c0 5.7 4.6 10.3 10.2 10.4h76.9s15-1.3 15 10v61z"></path><path fill="#3870B2" d="M72.2 72.9C76.3 69.8 77.1 64 74 60c-1.7-2.2-4.3-3.6-7.1-3.7h.3c.5-.1 1.1-.1 1.6 0v-5.7c0-.7-.3-1.3-.9-1.6-.9-.5-2-.2-2.5.7-.2.3-.3.6-.2 1v5.8c-5 .8-8.5 5.5-7.7 10.6v.1c.4 2.4 1.7 4.6 3.7 6l-16.9 36.2h11l7.8-16.6c.9-2 3.3-2.9 5.4-1.9.8.4 1.5 1.1 1.9 1.9l8.1 16.6h11.2L72.2 72.9zm-5.7-1.6c-3.2 0-5.7-2.6-5.7-5.8 0-3.2 2.6-5.7 5.8-5.6 1.5 0 2.8.6 3.9 1.6 2.3 2.2 2.3 5.8.1 8.1-1 1-2.5 1.7-4.1 1.7z"></path><path fill="#FFF" d="M45.2 22.7h39.4v7.2H45.2v-7.2z"></path><path fill="#073042" d="M63.5 59.8c3.1 0 5.7 2.6 5.6 5.8 0 3.1-2.6 5.7-5.8 5.6-3.1 0-5.6-2.6-5.6-5.7 0-1.5.6-2.9 1.7-4s2.6-1.7 4.1-1.7zm2.2-3.3v-6c0-.7-.3-1.3-.9-1.6-.9-.5-2-.2-2.5.7-.2.3-.3.6-.2 1v5.8c-5 .8-8.5 5.5-7.7 10.6v.1c.4 2.4 1.7 4.6 3.7 6l-21.3 45.7c-.8 1.6-.7 3.6.4 5.1 1.6 2.3 4.7 2.9 7 1.3.8-.5 1.4-1.3 1.8-2.1l14.2-30.4c.9-2 3.3-2.9 5.4-1.9.8.4 1.5 1.1 1.9 1.9L82 122.8c1.2 2.5 4.2 3.5 6.7 2.3 2.5-1.2 3.5-4.2 2.3-6.7L69.1 72.9c4-3.2 4.7-9.1 1.5-13.1-1.2-1.6-2.9-2.7-4.9-3.3"></path><path fill="#3DDC84" d="M78.8 29.1c-1.5 0-2.7-1.1-2.7-2.6 0-.7.3-1.5.8-2 1.1-1 2.7-1 3.8 0 .5.5.8 1.2.8 1.9-.1 1.5-1.2 2.6-2.7 2.7M49.2 29c-1.5 0-2.7-1.2-2.7-2.6 0-.7.3-1.4.8-1.9.9-1.1 2.6-1.3 3.7-.4h.1c1.1 1 1.2 2.7.2 3.8l-.3.4c-.5.5-1.2.8-1.9.8m30.5-16.2l5.3-9.2c.3-.5.1-1.1-.3-1.5-.5-.2-1-.1-1.3.3L77.8 12C69 8.1 59 8.1 50.3 12l-5.4-9.4c-.2-.3-.6-.6-1-.6s-.8.2-1 .6c-.2.3-.2.8 0 1.1l5.4 9.2C38.9 18 32.8 27.6 31.9 38.2h64.2c-.8-10.7-7-20.2-16.4-25.3"></path><path fill="#073042" d="M105.6 58.1h-4.2c-.2.1-.4.3-.4.6v66.5c0 .3.2.5.5.5h4.4c5.1 0 9.2-4.2 9.2-9.2V48.8c0 5.1-4.1 9.2-9.2 9.2h-.3z"></path>
    </symbol>

    <symbol id="angular-icon" viewBox="0 0 128 128">
        <g id="surface1">
            <path style=" stroke:none;fill-rule:nonzero;fill:rgb(86.666667%,0%,19.215686%);fill-opacity:1;" d="M 64 15.359375 L 16.332031 32.359375 L 23.601562 95.386719 L 64 117.761719 L 104.398438 95.386719 L 111.667969 32.359375 Z M 64 15.359375 "></path>
            <path style=" stroke:none;fill-rule:nonzero;fill:rgb(76.470588%,0%,18.431373%);fill-opacity:1;" d="M 64 15.359375 L 64 26.726562 L 64 26.675781 L 64 117.761719 L 104.398438 95.386719 L 111.667969 32.359375 Z M 64 15.359375 "></path>
            <path style=" stroke:none;fill-rule:nonzero;fill:rgb(100%,100%,100%);fill-opacity:1;" d="M 64 26.675781 L 34.203125 93.492188 L 45.3125 93.492188 L 51.300781 78.539062 L 76.59375 78.539062 L 82.585938 93.492188 L 93.695312 93.492188 Z M 72.703125 69.324219 L 55.296875 69.324219 L 64 48.382812 Z M 72.703125 69.324219 "></path>
        </g>   
    </symbol>

    <symbol id="bash-icon" viewBox="0 0 128 128">      
        <path fill="none" d="M4.24 4.24h119.53v119.53H4.24z"></path><path fill="#293138" d="M109.01 28.64L71.28 6.24c-2.25-1.33-4.77-2-7.28-2s-5.03.67-7.28 2.01l-37.74 22.4c-4.5 2.67-7.28 7.61-7.28 12.96v44.8c0 5.35 2.77 10.29 7.28 12.96l37.73 22.4c2.25 1.34 4.76 2 7.28 2 2.51 0 5.03-.67 7.28-2l37.74-22.4c4.5-2.67 7.28-7.62 7.28-12.96V41.6c0-5.34-2.77-10.29-7.28-12.96zM79.79 98.59l.06 3.22c0 .39-.25.83-.55.99l-1.91 1.1c-.3.15-.56-.03-.56-.42l-.03-3.17c-1.63.68-3.29.84-4.34.42-.2-.08-.29-.37-.21-.71l.69-2.91c.06-.23.18-.46.34-.6.06-.06.12-.1.18-.13.11-.06.22-.07.31-.03 1.14.38 2.59.2 3.99-.5 1.78-.9 2.97-2.72 2.95-4.52-.02-1.64-.9-2.31-3.05-2.33-2.74.01-5.3-.53-5.34-4.57-.03-3.32 1.69-6.78 4.43-8.96l-.03-3.25c0-.4.24-.84.55-1l1.85-1.18c.3-.15.56.04.56.43l.03 3.25c1.36-.54 2.54-.69 3.61-.44.23.06.34.38.24.75l-.72 2.88c-.06.22-.18.44-.33.58a.77.77 0 01-.19.14c-.1.05-.19.06-.28.05-.49-.11-1.65-.36-3.48.56-1.92.97-2.59 2.64-2.58 3.88.02 1.48.77 1.93 3.39 1.97 3.49.06 4.99 1.58 5.03 5.09.05 3.44-1.79 7.15-4.61 9.41zm26.34-60.5l-35.7 22.05c-4.45 2.6-7.73 5.52-7.74 10.89v43.99c0 3.21 1.3 5.29 3.29 5.9-.65.11-1.32.19-1.98.19-2.09 0-4.15-.57-5.96-1.64l-37.73-22.4c-3.69-2.19-5.98-6.28-5.98-10.67V41.6c0-4.39 2.29-8.48 5.98-10.67l37.74-22.4c1.81-1.07 3.87-1.64 5.96-1.64s4.15.57 5.96 1.64l37.74 22.4c3.11 1.85 5.21 5.04 5.8 8.63-1.27-2.67-4.09-3.39-7.38-1.47z"></path><path fill="#4FA847" d="M99.12 90.73l-9.4 5.62c-.25.15-.43.31-.43.61v2.46c0 .3.2.43.45.28l9.54-5.8c.25-.15.29-.42.29-.72v-2.17c0-.3-.2-.42-.45-.28z"></path>
    </symbol>

    <symbol id="bootstrap-icon" viewBox="0 0 128 128">
        <defs><linearGradient id="a" x1="76.079" x2="523.48" y1="10.798" y2="365.95" gradientTransform="translate(1.11 14.613) scale(.24566)" gradientUnits="userSpaceOnUse"><stop offset="0" stop-color="#9013fe"></stop><stop offset="1" stop-color="#6610f2"></stop></linearGradient><linearGradient id="b" x1="193.51" x2="293.51" y1="109.74" y2="278.87" gradientTransform="translate(0 52)" gradientUnits="userSpaceOnUse"><stop offset="0" stop-color="#fff"></stop><stop offset="1" stop-color="#f1e5fc"></stop></linearGradient><filter id="c" width="197" height="249" x="161.9" y="135.46" color-interpolation-filters="sRGB" filterUnits="userSpaceOnUse"><feFlood flood-opacity="0" result="BackgroundImageFix"></feFlood><feColorMatrix in="SourceAlpha" values="0 0 0 0 0 0 0 0 0 0 0 0 0 0 0 0 0 0 127 0"></feColorMatrix><feOffset dy="4"></feOffset><feGaussianBlur stdDeviation="8"></feGaussianBlur><feColorMatrix values="0 0 0 0 0 0 0 0 0 0 0 0 0 0 0 0 0 0 0.15 0"></feColorMatrix><feBlend in2="BackgroundImageFix" result="effect1_dropShadow"></feBlend><feBlend in="SourceGraphic" in2="effect1_dropShadow" result="shape"></feBlend></filter></defs><path fill="url(#a)" d="M14.985 27.712c-.237-6.815 5.072-13.099 12.249-13.099h73.54c7.177 0 12.486 6.284 12.249 13.099-.228 6.546.068 15.026 2.202 21.94 2.141 6.936 5.751 11.319 11.664 11.883v6.387c-5.913.564-9.523 4.947-11.664 11.883-2.134 6.914-2.43 15.394-2.202 21.94.237 6.815-5.072 13.098-12.249 13.098h-73.54c-7.177 0-12.486-6.284-12.249-13.098.228-6.546-.068-15.026-2.203-21.94-2.14-6.935-5.76-11.319-11.673-11.883v-6.387c5.913-.563 9.533-4.947 11.673-11.883 2.135-6.914 2.43-15.394 2.203-21.94z"></path><path fill="url(#b)" d="M267.1 364.46c47.297 0 75.798-23.158 75.798-61.355 0-28.873-20.336-49.776-50.532-53.085v-1.203c22.185-3.609 39.594-24.211 39.594-47.219 0-32.783-25.882-54.138-65.322-54.138h-88.74v217zm-54.692-189.48h45.911c24.958 0 39.131 11.128 39.131 31.279 0 21.505-16.484 33.535-46.372 33.535h-38.67zm0 161.96v-71.431h45.602c32.661 0 49.608 12.03 49.608 35.49 0 23.459-16.484 35.941-47.605 35.941z" filter="url(#c)" transform="translate(1.494 2.203) scale(.24566)"></path>
    </symbol>

    <symbol id="cplusplus-icon" viewBox="0 0 128 128">  
        <path fill="#00599c" d="M118.766 95.82c.89-1.543 1.441-3.28 1.441-4.843V36.78c0-1.558-.55-3.297-1.441-4.84l-55.32 31.94Zm0 0"></path>
        <path fill="#004482" d="m68.36 126.586 46.933-27.094c1.352-.781 2.582-2.129 3.473-3.672l-55.32-31.94L8.12 95.82c.89 1.543 2.121 2.89 3.473 3.672l46.933 27.094c2.703 1.562 7.13 1.562 9.832 0Zm0 0"></path>
        <path fill="#659ad2" d="M118.766 31.941c-.891-1.546-2.121-2.894-3.473-3.671L68.359 1.172c-2.703-1.563-7.129-1.563-9.832 0L11.594 28.27C8.89 29.828 6.68 33.66 6.68 36.78v54.196c0 1.562.55 3.3 1.441 4.843L63.445 63.88Zm0 0"></path>
        <path fill="#fff" d="M63.445 26.035c-20.867 0-37.843 16.977-37.843 37.844s16.976 37.844 37.843 37.844c13.465 0 26.024-7.247 32.77-18.91L79.84 73.335c-3.38 5.84-9.66 9.465-16.395 9.465-10.433 0-18.922-8.488-18.922-18.922 0-10.434 8.49-18.922 18.922-18.922 6.73 0 13.017 3.629 16.39 9.465l16.38-9.477c-6.75-11.664-19.305-18.91-32.77-18.91zM92.88 57.57v4.207h-4.207v4.203h4.207v4.207h4.203V65.98h4.203v-4.203h-4.203V57.57H92.88zm15.766 0v4.207h-4.204v4.203h4.204v4.207h4.207V65.98h4.203v-4.203h-4.203V57.57h-4.207z"></path>     
    </symbol>

    <symbol id="csharp-icon" viewBox="0 0 128 128">
        <path fill="#9B4F96" d="M115.4 30.7L67.1 2.9c-.8-.5-1.9-.7-3.1-.7-1.2 0-2.3.3-3.1.7l-48 27.9c-1.7 1-2.9 3.5-2.9 5.4v55.7c0 1.1.2 2.4 1 3.5l106.8-62c-.6-1.2-1.5-2.1-2.4-2.7z"></path><path fill="#68217A" d="M10.7 95.3c.5.8 1.2 1.5 1.9 1.9l48.2 27.9c.8.5 1.9.7 3.1.7 1.2 0 2.3-.3 3.1-.7l48-27.9c1.7-1 2.9-3.5 2.9-5.4V36.1c0-.9-.1-1.9-.6-2.8l-106.6 62z"></path><path fill="#fff" d="M85.3 76.1C81.1 83.5 73.1 88.5 64 88.5c-13.5 0-24.5-11-24.5-24.5s11-24.5 24.5-24.5c9.1 0 17.1 5 21.3 12.5l13-7.5c-6.8-11.9-19.6-20-34.3-20-21.8 0-39.5 17.7-39.5 39.5s17.7 39.5 39.5 39.5c14.6 0 27.4-8 34.2-19.8l-12.9-7.6zM97 66.2l.9-4.3h-4.2v-4.7h5.1L100 51h4.9l-1.2 6.1h3.8l1.2-6.1h4.8l-1.2 6.1h2.4v4.7h-3.3l-.9 4.3h4.2v4.7h-5.1l-1.2 6h-4.9l1.2-6h-3.8l-1.2 6h-4.8l1.2-6h-2.4v-4.7H97zm4.8 0h3.8l.9-4.3h-3.8l-.9 4.3z"></path>    
    </symbol>

    <symbol id="css-icon" viewBox="0 0 128 128">
        <path fill="#1572B6" d="M18.814 114.123L8.76 1.352h110.48l-10.064 112.754-45.243 12.543-45.119-12.526z"></path><path fill="#33A9DC" d="M64.001 117.062l36.559-10.136 8.601-96.354h-45.16v106.49z"></path><path fill="#fff" d="M64.001 51.429h18.302l1.264-14.163H64.001V23.435h34.682l-.332 3.711-3.4 38.114h-30.95V51.429z"></path><path fill="#EBEBEB" d="M64.083 87.349l-.061.018-15.403-4.159-.985-11.031H33.752l1.937 21.717 28.331 7.863.063-.018v-14.39z"></path><path fill="#fff" d="M81.127 64.675l-1.666 18.522-15.426 4.164v14.39l28.354-7.858.208-2.337 2.406-26.881H81.127z"></path><path fill="#EBEBEB" d="M64.048 23.435v13.831H30.64l-.277-3.108-.63-7.012-.331-3.711h34.646zm-.047 27.996v13.831H48.792l-.277-3.108-.631-7.012-.33-3.711h16.447z"></path>
    </symbol>

    <symbol id="express-icon" viewBox="0 0 64 64">
        <linearGradient id="Ptgyoqd6DQJu9ZUJIh3sLa_2ZOaTclOqD4q_gr1" x1="30.982" x2="30.982" y1="21.203" y2="43.514" gradientUnits="userSpaceOnUse"><stop offset="0" stop-color="#6dc7ff"></stop><stop offset="1" stop-color="#e6abff"></stop></linearGradient><path fill="url(#Ptgyoqd6DQJu9ZUJIh3sLa_2ZOaTclOqD4q_gr1)" d="M45.758,32.346L56.964,47h-0.85c-1.051,0-2.041-0.49-2.68-1.324L44.5,33.992l-8.935,11.684	C34.927,46.51,33.937,47,32.886,47h-0.85l11.206-14.654L32.271,18h0.85c1.051,0,2.041,0.49,2.68,1.324l8.7,11.377l8.7-11.377	C53.838,18.49,54.829,18,55.879,18h0.85L45.758,32.346z M28.527,40h0.638c0,0,0,0,0,0c-2.348,6.085-9.292,9.631-15.896,7.256	C8.215,45.437,5,40.444,5,35.073L5,29.5c0-7.29,6.273-13.143,13.705-12.443C25.182,17.667,30,23.361,30,29.866L30,34H19v0H7l0,1.109	c0,4.501,2.671,8.705,6.9,10.248c4.807,1.754,9.835-0.235,12.389-4.116C26.789,40.481,27.616,40,28.527,40z M7,32h21v-2.5	C28,23.71,23.29,19,17.5,19S7,23.71,7,29.5V32z"></path><linearGradient id="Ptgyoqd6DQJu9ZUJIh3sLb_2ZOaTclOqD4q_gr2" x1="44.5" x2="44.5" y1="16" y2="49" gradientUnits="userSpaceOnUse"><stop offset="0" stop-color="#1a6dff"></stop><stop offset="1" stop-color="#c822ff"></stop></linearGradient><path fill="url(#Ptgyoqd6DQJu9ZUJIh3sLb_2ZOaTclOqD4q_gr2)" d="M56.729,18L45.758,32.347L56.964,47h-0.85	c-1.051,0-2.041-0.49-2.68-1.324L44.5,33.992l-8.935,11.684C34.927,46.51,33.937,47,32.886,47h-0.85l11.206-14.653L32.271,18h0.85	c1.051,0,2.041,0.49,2.68,1.324l8.7,11.377l8.7-11.377C53.838,18.49,54.829,18,55.879,18H56.729 M60.776,16h-4.047h-0.85	c-1.663,0-3.258,0.788-4.268,2.109L44.5,27.408l-7.111-9.299C36.379,16.788,34.783,16,33.121,16h-0.85h-4.047l2.458,3.215	l10.042,13.132L30.447,45.785L27.989,49h4.047h0.85c1.663,0,3.258-0.789,4.268-2.109l7.346-9.606l7.346,9.606	C52.856,48.211,54.451,49,56.114,49h0.85h4.047l-2.458-3.215L48.276,32.346l10.042-13.132L60.776,16L60.776,16z"></path><linearGradient id="Ptgyoqd6DQJu9ZUJIh3sLc_2ZOaTclOqD4q_gr3" x1="17.54" x2="17.54" y1="15" y2="50" gradientUnits="userSpaceOnUse"><stop offset="0" stop-color="#1a6dff"></stop><stop offset="1" stop-color="#c822ff"></stop></linearGradient><path fill="url(#Ptgyoqd6DQJu9ZUJIh3sLc_2ZOaTclOqD4q_gr3)" d="M17.5,17c0.397,0,0.8,0.019,1.205,0.057	C25.182,17.667,30,23.361,30,29.866V34H19v0H7v1.109c0,4.501,2.671,8.705,6.9,10.248C15.1,45.796,16.314,46,17.5,46	c3.563,0,6.872-1.847,8.789-4.758C26.789,40.481,27.616,40,28.527,40h0.638c0,0,0,0,0,0c-1.847,4.785-6.535,8-11.665,8	c-1.394,0-2.82-0.237-4.231-0.745C8.215,45.437,5,40.444,5,35.073V29.5C5,22.607,10.607,17,17.5,17 M7,32h21v-2.5	C28,23.71,23.29,19,17.5,19S7,23.71,7,29.5V32 M17.5,15L17.5,15c-3.868,0-7.508,1.509-10.249,4.251C4.51,21.992,3,25.632,3,29.5	v5.573c0,6.348,3.855,12,9.592,14.065C14.184,49.71,15.835,50,17.5,50c5.951,0,11.389-3.729,13.531-9.28l1.05-2.72l-2.915,0	l-0.638,0c-1.565,0-3.026,0.801-3.91,2.142C23.052,42.522,20.324,44,17.5,44c-0.986,0-1.967-0.175-2.915-0.521	C11.509,42.356,9.362,39.416,9.042,36H19l11,0l2,0v-2v-4.134c0-7.607-5.758-14.109-13.108-14.8C18.43,15.022,17.962,15,17.5,15	L17.5,15z M9,30v-0.5c0-4.687,3.813-8.5,8.5-8.5s8.5,3.813,8.5,8.5V30H9L9,30z"></path>
    </symbol>

    <symbol id="figma-icon" viewBox="0 0 128 128">
        <path fill="#0acf83" d="M45.5 129c11.9 0 21.5-9.6 21.5-21.5V86H45.5C33.6 86 24 95.6 24 107.5S33.6 129 45.5 129zm0 0"></path><path fill="#a259ff" d="M24 64.5C24 52.6 33.6 43 45.5 43H67v43H45.5C33.6 86 24 76.4 24 64.5zm0 0"></path><path fill="#f24e1e" d="M24 21.5C24 9.6 33.6 0 45.5 0H67v43H45.5C33.6 43 24 33.4 24 21.5zm0 0"></path><path fill="#ff7262" d="M67 0h21.5C100.4 0 110 9.6 110 21.5S100.4 43 88.5 43H67zm0 0"></path><path fill="#1abcfe" d="M110 64.5c0 11.9-9.6 21.5-21.5 21.5S67 76.4 67 64.5 76.6 43 88.5 43 110 52.6 110 64.5zm0 0"></path>
    </symbol>

    <symbol id="firebase-icon" viewBox="0 0 128 128">
        <path fill="#ffa000" d="M17.474 103.276 33.229 2.462a2.91 2.91 0 0 1 5.44-.924l16.294 30.39 6.494-12.366a2.91 2.91 0 0 1 5.15 0l43.97 83.714H17.474Z"></path><path fill="#f57c00" d="M71.903 64.005 54.955 31.913l-37.481 71.363Z"></path><path fill="#ffca28" d="M110.577 103.276 98.51 28.604a2.913 2.913 0 0 0-1.984-2.286 2.906 2.906 0 0 0-2.94.714l-76.112 76.243 42.115 23.618a8.728 8.728 0 0 0 8.51 0l42.478-23.618Z"></path><path fill="#fff" fill-opacity=".2" d="M98.51 28.604a2.913 2.913 0 0 0-1.984-2.286 2.906 2.906 0 0 0-2.94.713L78.479 42.178 66.6 19.562a2.91 2.91 0 0 0-5.15 0l-6.494 12.365L38.662 1.538A2.91 2.91 0 0 0 35.605.044a2.907 2.907 0 0 0-2.384 2.425L17.474 103.276h-.051l.05.058.415.204 75.676-75.764a2.91 2.91 0 0 1 4.932 1.571l11.965 74.003.116-.073L98.51 28.603Zm-80.898 74.534L33.228 3.182A2.91 2.91 0 0 1 35.613.756a2.911 2.911 0 0 1 3.057 1.495l16.292 30.39 6.495-12.366a2.91 2.91 0 0 1 5.15 0L78.245 42.41 17.61 103.138Z"></path><path fill="#a52714" d="M68.099 126.18a8.728 8.728 0 0 1-8.51 0l-42.015-23.55-.102.647 42.115 23.61a8.728 8.728 0 0 0 8.51 0l42.48-23.61-.11-.67-42.37 23.575z" opacity=".2"></path>
    </symbol>

    <symbol id="git-icon" viewBox="0 0 128 128">
        <path fill="#F34F29" d="M124.737 58.378L69.621 3.264c-3.172-3.174-8.32-3.174-11.497 0L46.68 14.71l14.518 14.518c3.375-1.139 7.243-.375 9.932 2.314 2.703 2.706 3.461 6.607 2.294 9.993l13.992 13.993c3.385-1.167 7.292-.413 9.994 2.295 3.78 3.777 3.78 9.9 0 13.679a9.673 9.673 0 01-13.683 0 9.677 9.677 0 01-2.105-10.521L68.574 47.933l-.002 34.341a9.708 9.708 0 012.559 1.828c3.778 3.777 3.778 9.898 0 13.683-3.779 3.777-9.904 3.777-13.679 0-3.778-3.784-3.778-9.905 0-13.683a9.65 9.65 0 013.167-2.11V47.333a9.581 9.581 0 01-3.167-2.111c-2.862-2.86-3.551-7.06-2.083-10.576L41.056 20.333 3.264 58.123a8.133 8.133 0 000 11.5l55.117 55.114c3.174 3.174 8.32 3.174 11.499 0l54.858-54.858a8.135 8.135 0 00-.001-11.501z"></path>
    </symbol>

    <symbol id="html-icon" viewBox="0 0 128 128">
        <path fill="#E44D26" d="M19.037 113.876L9.032 1.661h109.936l-10.016 112.198-45.019 12.48z"></path><path fill="#F16529" d="M64 116.8l36.378-10.086 8.559-95.878H64z"></path><path fill="#EBEBEB" d="M64 52.455H45.788L44.53 38.361H64V24.599H29.489l.33 3.692 3.382 37.927H64zm0 35.743l-.061.017-15.327-4.14-.979-10.975H33.816l1.928 21.609 28.193 7.826.063-.017z"></path><path fill="#fff" d="M63.952 52.455v13.763h16.947l-1.597 17.849-15.35 4.143v14.319l28.215-7.82.207-2.325 3.234-36.233.335-3.696h-3.708zm0-27.856v13.762h33.244l.276-3.092.628-6.978.329-3.692z"></path>
    </symbol>

    <symbol id="ionic-icon" viewBox="0 0 128 128">
        <g fill="#4e8ef7"><circle cx="64" cy="64" r="24.08"></circle><path d="M113.14 23.14a8.27 8.27 0 00-13.7-6.25 59 59 0 1011.67 11.67 8.24 8.24 0 002.03-5.42zM64 121A57 57 0 1198.1 18.36a8.27 8.27 0 0011.53 11.53A57 57 0 0164 121z"></path></g>
    </symbol>

    <symbol id="java-icon" viewBox="0 0 128 128">
        <path fill="#0074BD" d="M47.617 98.12s-4.767 2.774 3.397 3.71c9.892 1.13 14.947.968 25.845-1.092 0 0 2.871 1.795 6.873 3.351-24.439 10.47-55.308-.607-36.115-5.969zm-2.988-13.665s-5.348 3.959 2.823 4.805c10.567 1.091 18.91 1.18 33.354-1.6 0 0 1.993 2.025 5.132 3.131-29.542 8.64-62.446.68-41.309-6.336z"></path><path fill="#EA2D2E" d="M69.802 61.271c6.025 6.935-1.58 13.17-1.58 13.17s15.289-7.891 8.269-17.777c-6.559-9.215-11.587-13.792 15.635-29.58 0 .001-42.731 10.67-22.324 34.187z"></path><path fill="#0074BD" d="M102.123 108.229s3.529 2.91-3.888 5.159c-14.102 4.272-58.706 5.56-71.094.171-4.451-1.938 3.899-4.625 6.526-5.192 2.739-.593 4.303-.485 4.303-.485-4.953-3.487-32.013 6.85-13.743 9.815 49.821 8.076 90.817-3.637 77.896-9.468zM49.912 70.294s-22.686 5.389-8.033 7.348c6.188.828 18.518.638 30.011-.326 9.39-.789 18.813-2.474 18.813-2.474s-3.308 1.419-5.704 3.053c-23.042 6.061-67.544 3.238-54.731-2.958 10.832-5.239 19.644-4.643 19.644-4.643zm40.697 22.747c23.421-12.167 12.591-23.86 5.032-22.285-1.848.385-2.677.72-2.677.72s.688-1.079 2-1.543c14.953-5.255 26.451 15.503-4.823 23.725 0-.002.359-.327.468-.617z"></path><path fill="#EA2D2E" d="M76.491 1.587S89.459 14.563 64.188 34.51c-20.266 16.006-4.621 25.13-.007 35.559-11.831-10.673-20.509-20.07-14.688-28.815C58.041 28.42 81.722 22.195 76.491 1.587z"></path><path fill="#0074BD" d="M52.214 126.021c22.476 1.437 57-.8 57.817-11.436 0 0-1.571 4.032-18.577 7.231-19.186 3.612-42.854 3.191-56.887.874 0 .001 2.875 2.381 17.647 3.331z"></path>
    </symbol>

    <symbol id="javascript-icon" viewBox="0 0 128 128">
        <path fill="#F0DB4F" d="M1.408 1.408h125.184v125.185H1.408z"></path><path fill="#323330" d="M116.347 96.736c-.917-5.711-4.641-10.508-15.672-14.981-3.832-1.761-8.104-3.022-9.377-5.926-.452-1.69-.512-2.642-.226-3.665.821-3.32 4.784-4.355 7.925-3.403 2.023.678 3.938 2.237 5.093 4.724 5.402-3.498 5.391-3.475 9.163-5.879-1.381-2.141-2.118-3.129-3.022-4.045-3.249-3.629-7.676-5.498-14.756-5.355l-3.688.477c-3.534.893-6.902 2.748-8.877 5.235-5.926 6.724-4.236 18.492 2.975 23.335 7.104 5.332 17.54 6.545 18.873 11.531 1.297 6.104-4.486 8.08-10.234 7.378-4.236-.881-6.592-3.034-9.139-6.949-4.688 2.713-4.688 2.713-9.508 5.485 1.143 2.499 2.344 3.63 4.26 5.795 9.068 9.198 31.76 8.746 35.83-5.176.165-.478 1.261-3.666.38-8.581zM69.462 58.943H57.753l-.048 30.272c0 6.438.333 12.34-.714 14.149-1.713 3.558-6.152 3.117-8.175 2.427-2.059-1.012-3.106-2.451-4.319-4.485-.333-.584-.583-1.036-.667-1.071l-9.52 5.83c1.583 3.249 3.915 6.069 6.902 7.901 4.462 2.678 10.459 3.499 16.731 2.059 4.082-1.189 7.604-3.652 9.448-7.401 2.666-4.915 2.094-10.864 2.07-17.444.06-10.735.001-21.468.001-32.237z"></path>
    </symbol>

    <symbol id="kotlin-icon" viewBox="0 0 128 128">
        <path fill="#c711e1" d="M112.484 112.484H15.516V15.516h96.968L64 64Zm0 0"></path>
    </symbol>

    <symbol id="mongodb-icon" viewBox="0 0 128 128">
        <path fill-rule="evenodd" clip-rule="evenodd" fill="#439934" d="M88.038 42.812c1.605 4.643 2.761 9.383 3.141 14.296.472 6.095.256 12.147-1.029 18.142-.035.165-.109.32-.164.48-.403.001-.814-.049-1.208.012-3.329.523-6.655 1.065-9.981 1.604-3.438.557-6.881 1.092-10.313 1.687-1.216.21-2.721-.041-3.212 1.641-.014.046-.154.054-.235.08l.166-10.051-.169-24.252 1.602-.275c2.62-.429 5.24-.864 7.862-1.281 3.129-.497 6.261-.98 9.392-1.465 1.381-.215 2.764-.412 4.148-.618z"></path><path fill-rule="evenodd" clip-rule="evenodd" fill="#45A538" d="M61.729 110.054c-1.69-1.453-3.439-2.842-5.059-4.37-8.717-8.222-15.093-17.899-18.233-29.566-.865-3.211-1.442-6.474-1.627-9.792-.13-2.322-.318-4.665-.154-6.975.437-6.144 1.325-12.229 3.127-18.147l.099-.138c.175.233.427.439.516.702 1.759 5.18 3.505 10.364 5.242 15.551 5.458 16.3 10.909 32.604 16.376 48.9.107.318.384.579.583.866l-.87 2.969z"></path><path fill-rule="evenodd" clip-rule="evenodd" fill="#46A037" d="M88.038 42.812c-1.384.206-2.768.403-4.149.616-3.131.485-6.263.968-9.392 1.465-2.622.417-5.242.852-7.862 1.281l-1.602.275-.012-1.045c-.053-.859-.144-1.717-.154-2.576-.069-5.478-.112-10.956-.18-16.434-.042-3.429-.105-6.857-.175-10.285-.043-2.13-.089-4.261-.185-6.388-.052-1.143-.236-2.28-.311-3.423-.042-.657.016-1.319.029-1.979.817 1.583 1.616 3.178 2.456 4.749 1.327 2.484 3.441 4.314 5.344 6.311 7.523 7.892 12.864 17.068 16.193 27.433z"></path><path fill-rule="evenodd" clip-rule="evenodd" fill="#409433" d="M65.036 80.753c.081-.026.222-.034.235-.08.491-1.682 1.996-1.431 3.212-1.641 3.432-.594 6.875-1.13 10.313-1.687 3.326-.539 6.652-1.081 9.981-1.604.394-.062.805-.011 1.208-.012-.622 2.22-1.112 4.488-1.901 6.647-.896 2.449-1.98 4.839-3.131 7.182a49.142 49.142 0 01-6.353 9.763c-1.919 2.308-4.058 4.441-6.202 6.548-1.185 1.165-2.582 2.114-3.882 3.161l-.337-.23-1.214-1.038-1.256-2.753a41.402 41.402 0 01-1.394-9.838l.023-.561.171-2.426c.057-.828.133-1.655.168-2.485.129-2.982.241-5.964.359-8.946z"></path><path fill-rule="evenodd" clip-rule="evenodd" fill="#4FAA41" d="M65.036 80.753c-.118 2.982-.23 5.964-.357 8.947-.035.83-.111 1.657-.168 2.485l-.765.289c-1.699-5.002-3.399-9.951-5.062-14.913-2.75-8.209-5.467-16.431-8.213-24.642a4498.887 4498.887 0 00-6.7-19.867c-.105-.31-.407-.552-.617-.826l4.896-9.002c.168.292.39.565.496.879a6167.476 6167.476 0 016.768 20.118c2.916 8.73 5.814 17.467 8.728 26.198.116.349.308.671.491 1.062l.67-.78-.167 10.052z"></path><path fill-rule="evenodd" clip-rule="evenodd" fill="#4AA73C" d="M43.155 32.227c.21.274.511.516.617.826a4498.887 4498.887 0 016.7 19.867c2.746 8.211 5.463 16.433 8.213 24.642 1.662 4.961 3.362 9.911 5.062 14.913l.765-.289-.171 2.426-.155.559c-.266 2.656-.49 5.318-.814 7.968-.163 1.328-.509 2.632-.772 3.947-.198-.287-.476-.548-.583-.866-5.467-16.297-10.918-32.6-16.376-48.9a3888.972 3888.972 0 00-5.242-15.551c-.089-.263-.34-.469-.516-.702l3.272-8.84z"></path><path fill-rule="evenodd" clip-rule="evenodd" fill="#57AE47" d="M65.202 70.702l-.67.78c-.183-.391-.375-.714-.491-1.062-2.913-8.731-5.812-17.468-8.728-26.198a6167.476 6167.476 0 00-6.768-20.118c-.105-.314-.327-.588-.496-.879l6.055-7.965c.191.255.463.482.562.769 1.681 4.921 3.347 9.848 5.003 14.778 1.547 4.604 3.071 9.215 4.636 13.813.105.308.47.526.714.786l.012 1.045c.058 8.082.115 16.167.171 24.251z"></path><path fill-rule="evenodd" clip-rule="evenodd" fill="#60B24F" d="M65.021 45.404c-.244-.26-.609-.478-.714-.786-1.565-4.598-3.089-9.209-4.636-13.813-1.656-4.93-3.322-9.856-5.003-14.778-.099-.287-.371-.514-.562-.769 1.969-1.928 3.877-3.925 5.925-5.764 1.821-1.634 3.285-3.386 3.352-5.968.003-.107.059-.214.145-.514l.519 1.306c-.013.661-.072 1.322-.029 1.979.075 1.143.259 2.28.311 3.423.096 2.127.142 4.258.185 6.388.069 3.428.132 6.856.175 10.285.067 5.478.111 10.956.18 16.434.008.861.098 1.718.152 2.577z"></path><path fill-rule="evenodd" clip-rule="evenodd" fill="#A9AA88" d="M62.598 107.085c.263-1.315.609-2.62.772-3.947.325-2.649.548-5.312.814-7.968l.066-.01.066.011a41.402 41.402 0 001.394 9.838c-.176.232-.425.439-.518.701-.727 2.05-1.412 4.116-2.143 6.166-.1.28-.378.498-.574.744l-.747-2.566.87-2.969z"></path><path fill-rule="evenodd" clip-rule="evenodd" fill="#B6B598" d="M62.476 112.621c.196-.246.475-.464.574-.744.731-2.05 1.417-4.115 2.143-6.166.093-.262.341-.469.518-.701l1.255 2.754c-.248.352-.59.669-.728 1.061l-2.404 7.059c-.099.283-.437.483-.663.722l-.695-3.985z"></path><path fill-rule="evenodd" clip-rule="evenodd" fill="#C2C1A7" d="M63.171 116.605c.227-.238.564-.439.663-.722l2.404-7.059c.137-.391.48-.709.728-1.061l1.215 1.037c-.587.58-.913 1.25-.717 2.097l-.369 1.208c-.168.207-.411.387-.494.624-.839 2.403-1.64 4.819-2.485 7.222-.107.305-.404.544-.614.812-.109-1.387-.22-2.771-.331-4.158z"></path><path fill-rule="evenodd" clip-rule="evenodd" fill="#CECDB7" d="M63.503 120.763c.209-.269.506-.508.614-.812.845-2.402 1.646-4.818 2.485-7.222.083-.236.325-.417.494-.624l-.509 5.545c-.136.157-.333.294-.398.477-.575 1.614-1.117 3.24-1.694 4.854-.119.333-.347.627-.525.938-.158-.207-.441-.407-.454-.623-.051-.841-.016-1.688-.013-2.533z"></path><path fill-rule="evenodd" clip-rule="evenodd" fill="#DBDAC7" d="M63.969 123.919c.178-.312.406-.606.525-.938.578-1.613 1.119-3.239 1.694-4.854.065-.183.263-.319.398-.477l.012 3.64-1.218 3.124-1.411-.495z"></path><path fill-rule="evenodd" clip-rule="evenodd" fill="#EBE9DC" d="M65.38 124.415l1.218-3.124.251 3.696-1.469-.572z"></path><path fill-rule="evenodd" clip-rule="evenodd" fill="#CECDB7" d="M67.464 110.898c-.196-.847.129-1.518.717-2.097l.337.23-1.054 1.867z"></path><path fill-rule="evenodd" clip-rule="evenodd" fill="#4FAA41" d="M64.316 95.172l-.066-.011-.066.01.155-.559-.023.56z"></path>
    </symbol>

    <symbol id="mysql-icon" viewBox="0 0 128 128">
        <path fill="#00618A" d="M117.688 98.242c-6.973-.191-12.297.461-16.852 2.379-1.293.547-3.355.559-3.566 2.18.711.746.82 1.859 1.387 2.777 1.086 1.754 2.922 4.113 4.559 5.352 1.789 1.348 3.633 2.793 5.551 3.961 3.414 2.082 7.223 3.27 10.504 5.352 1.938 1.23 3.859 2.777 5.75 4.164.934.684 1.563 1.75 2.773 2.18v-.195c-.637-.812-.801-1.93-1.387-2.777l-2.578-2.578c-2.52-3.344-5.719-6.281-9.117-8.719-2.711-1.949-8.781-4.578-9.91-7.73l-.199-.199c1.922-.219 4.172-.914 5.949-1.391 2.98-.797 5.645-.59 8.719-1.387l4.164-1.187v-.793c-1.555-1.594-2.664-3.707-4.359-5.152-4.441-3.781-9.285-7.555-14.273-10.703-2.766-1.746-6.184-2.883-9.117-4.363-.988-.496-2.719-.758-3.371-1.586-1.539-1.961-2.379-4.449-3.566-6.738-2.488-4.793-4.93-10.023-7.137-15.066-1.504-3.437-2.484-6.828-4.359-9.91-9-14.797-18.687-23.73-33.695-32.508-3.195-1.867-7.039-2.605-11.102-3.57l-6.543-.395c-1.332-.555-2.715-2.184-3.965-2.977C16.977 3.52 4.223-3.312.539 5.672-1.785 11.34 4.016 16.871 6.09 19.746c1.457 2.012 3.32 4.273 4.359 6.539.688 1.492.805 2.984 1.391 4.559 1.438 3.883 2.695 8.109 4.559 11.695.941 1.816 1.98 3.727 3.172 5.352.727.996 1.98 1.438 2.18 2.973-1.227 1.715-1.297 4.375-1.984 6.543-3.098 9.77-1.926 21.91 2.578 29.137 1.383 2.223 4.641 6.98 9.117 5.156 3.918-1.598 3.043-6.539 4.164-10.902.254-.988.098-1.715.594-2.379v.199l3.57 7.133c2.641 4.254 7.324 8.699 11.297 11.699 2.059 1.555 3.68 4.242 6.344 5.152v-.199h-.199c-.516-.805-1.324-1.137-1.98-1.781-1.551-1.523-3.277-3.414-4.559-5.156-3.613-4.902-6.805-10.27-9.711-15.855-1.391-2.668-2.598-5.609-3.77-8.324-.453-1.047-.445-2.633-1.387-3.172-1.281 1.988-3.172 3.598-4.164 5.945-1.582 3.754-1.789 8.336-2.375 13.082-.348.125-.195.039-.398.199-2.762-.668-3.73-3.508-4.758-5.949-2.594-6.164-3.078-16.09-.793-23.191.59-1.836 3.262-7.617 2.18-9.316-.516-1.691-2.219-2.672-3.172-3.965-1.18-1.598-2.355-3.703-3.172-5.551-2.125-4.805-3.113-10.203-5.352-15.062-1.07-2.324-2.875-4.676-4.359-6.738-1.645-2.289-3.484-3.977-4.758-6.742-.453-.984-1.066-2.559-.398-3.566.215-.684.516-.969 1.191-1.191 1.148-.887 4.352.297 5.547.793 3.18 1.32 5.832 2.578 8.527 4.363 1.289.855 2.598 2.512 4.16 2.973h1.785c2.789.641 5.914.195 8.523.988 4.609 1.402 8.738 3.582 12.488 5.949 11.422 7.215 20.766 17.48 27.156 29.734 1.027 1.973 1.473 3.852 2.379 5.945 1.824 4.219 4.125 8.559 5.941 12.688 1.816 4.113 3.582 8.27 6.148 11.695 1.348 1.801 6.551 2.766 8.918 3.766 1.66.699 4.379 1.43 5.949 2.379 3 1.809 5.906 3.965 8.723 5.945 1.402.992 5.73 3.168 5.945 4.957zm-88.605-75.52c-1.453-.027-2.48.156-3.566.395v.199h.195c.695 1.422 1.918 2.34 2.777 3.566l1.98 4.164.199-.195c1.227-.867 1.789-2.25 1.781-4.363-.492-.52-.562-1.164-.992-1.785-.562-.824-1.66-1.289-2.375-1.98zm0 0"></path>
    </symbol>

    <symbol id="nodejs-icon" viewBox="0 0 128 128">
        <path fill="#5fa04e" d="M63.999 0a5.617 5.617 0 0 0-2.789.744L11.445 29.646 28.852 61.58 64.592.053A8.177 8.177 0 0 0 64.003 0Zm2.316.605v.002l35.194 60.577 16.545-30.449a5.483 5.483 0 0 0-1.028-.817L91.38 15.024 66.7.754h-.007c-.12-.061-.252-.099-.378-.15Zm-1.024.248L29.417 62.616l35.579 65.278c.1-.02.198-.023.297-.05l35.653-65.624ZM10.586 30.176c-1.502 1.031-2.35 2.752-2.35 4.595v58.478c0 .93.254 1.838.684 2.645l19.34-33.293Zm108.161 1.4-16.643 30.629 17.66 30.398V34.77c0-1.15-.382-2.265-1.017-3.195zm-17.204 31.667-34.808 64.062.055-.028 50.243-29.183.004-.002c1.402-.793 2.3-2.155 2.604-3.693zm-72.718.394L9.545 96.832c.406.5.885.936 1.43 1.266l.001.004 49.702 28.866.53.305.006.002h.002c.257.151.528.266.798.372.144.054.288.104.433.146.125.037.251.062.376.089.242.051.483.088.727.108.118.01.237.01.355.01z"></path>
    </symbol>

    <symbol id="npm-icon" viewBox="0 0 128 128">
        <path fill="#cb3837" d="M2 38.5h124v43.71H64v7.29H36.44v-7.29H2zm6.89 36.43h13.78V53.07h6.89v21.86h6.89V45.79H8.89zm34.44-29.14v36.42h13.78v-7.28h13.78V45.79zm13.78 7.29H64v14.56h-6.89zm20.67-7.29v29.14h13.78V53.07h6.89v21.86h6.89V53.07h6.89v21.86h6.89V45.79z"></path>
    </symbol>

    <symbol id="php-icon" viewBox="0 0 128 128">
        <path fill="url(#a)" d="M0 64c0 18.593 28.654 33.667 64 33.667 35.346 0 64-15.074 64-33.667 0-18.593-28.655-33.667-64-33.667C28.654 30.333 0 45.407 0 64Z"></path><path fill="#777bb3" d="M64 95.167c33.965 0 61.5-13.955 61.5-31.167 0-17.214-27.535-31.167-61.5-31.167S2.5 46.786 2.5 64c0 17.212 27.535 31.167 61.5 31.167Z"></path><path d="M34.772 67.864c2.793 0 4.877-.515 6.196-1.53 1.306-1.006 2.207-2.747 2.68-5.175.44-2.27.272-3.854-.5-4.71-.788-.874-2.493-1.317-5.067-1.317h-4.464l-2.473 12.732zM20.173 83.547a.694.694 0 0 1-.68-.828l6.557-33.738a.695.695 0 0 1 .68-.561h14.134c4.442 0 7.748 1.206 9.827 3.585 2.088 2.39 2.734 5.734 1.917 9.935-.333 1.711-.905 3.3-1.7 4.724a15.818 15.818 0 0 1-3.128 3.92c-1.531 1.432-3.264 2.472-5.147 3.083-1.852.604-4.232.91-7.07.91h-5.724l-1.634 8.408a.695.695 0 0 1-.682.562z"></path><path fill="#fff" d="M34.19 55.826h3.891c3.107 0 4.186.682 4.553 1.089.607.674.723 2.097.331 4.112-.439 2.257-1.253 3.858-2.42 4.756-1.194.92-3.138 1.386-5.773 1.386h-2.786l2.205-11.342zm6.674-8.1H26.731a1.39 1.39 0 0 0-1.364 1.123L18.81 82.588a1.39 1.39 0 0 0 1.363 1.653h7.35a1.39 1.39 0 0 0 1.363-1.124l1.525-7.846h5.151c2.912 0 5.364-.318 7.287-.944 1.977-.642 3.796-1.731 5.406-3.237a16.522 16.522 0 0 0 3.259-4.087c.831-1.487 1.429-3.147 1.775-4.931.86-4.423.161-7.964-2.076-10.524-2.216-2.537-5.698-3.823-10.349-3.823zM30.301 68.557h4.471c2.963 0 5.17-.557 6.62-1.675 1.451-1.116 2.428-2.98 2.938-5.591.485-2.508.264-4.277-.665-5.308-.931-1.03-2.791-1.546-5.584-1.546h-5.036l-2.743 14.12m10.563-19.445c4.252 0 7.353 1.117 9.303 3.348 1.95 2.232 2.536 5.347 1.76 9.346-.322 1.648-.863 3.154-1.625 4.518-.764 1.366-1.76 2.614-2.991 3.747-1.468 1.373-3.097 2.352-4.892 2.935-1.794.584-4.08.875-6.857.875h-6.296l-1.743 8.97h-7.35l6.558-33.739h14.133"></path><path d="M69.459 74.577a.694.694 0 0 1-.682-.827l2.9-14.928c.277-1.42.209-2.438-.19-2.87-.245-.263-.979-.704-3.15-.704h-5.256l-3.646 18.768a.695.695 0 0 1-.683.56h-7.29a.695.695 0 0 1-.683-.826l6.558-33.739a.695.695 0 0 1 .682-.561h7.29a.695.695 0 0 1 .683.826L64.41 48.42h5.653c4.307 0 7.227.758 8.928 2.321 1.733 1.593 2.275 4.14 1.608 7.573l-3.051 15.702a.695.695 0 0 1-.682.56h-7.407z"></path><path fill="#fff" d="M65.31 38.755h-7.291a1.39 1.39 0 0 0-1.364 1.124l-6.557 33.738a1.39 1.39 0 0 0 1.363 1.654h7.291a1.39 1.39 0 0 0 1.364-1.124l3.537-18.205h4.682c2.168 0 2.624.463 2.641.484.132.14.305.795.019 2.264l-2.9 14.927a1.39 1.39 0 0 0 1.364 1.654h7.408a1.39 1.39 0 0 0 1.363-1.124l3.051-15.7c.715-3.686.103-6.45-1.82-8.217-1.836-1.686-4.91-2.505-9.398-2.505h-4.81l1.421-7.315a1.39 1.39 0 0 0-1.364-1.655zm0 1.39-1.743 8.968h6.496c4.087 0 6.907.714 8.457 2.14 1.553 1.426 2.017 3.735 1.398 6.93l-3.052 15.699h-7.407l2.901-14.928c.33-1.698.208-2.856-.365-3.474-.573-.617-1.793-.926-3.658-.926h-5.829l-3.756 19.327H51.46l6.558-33.739h7.292z"></path><path d="M92.136 67.864c2.793 0 4.878-.515 6.198-1.53 1.304-1.006 2.206-2.747 2.679-5.175.44-2.27.273-3.854-.5-4.71-.788-.874-2.493-1.317-5.067-1.317h-4.463l-2.475 12.732zM77.54 83.547a.694.694 0 0 1-.682-.828l6.557-33.738a.695.695 0 0 1 .682-.561H98.23c4.442 0 7.748 1.206 9.826 3.585 2.089 2.39 2.734 5.734 1.917 9.935a15.878 15.878 0 0 1-1.699 4.724 15.838 15.838 0 0 1-3.128 3.92c-1.53 1.432-3.265 2.472-5.147 3.083-1.852.604-4.232.91-7.071.91h-5.723l-1.633 8.408a.695.695 0 0 1-.683.562z"></path><path fill="#fff" d="M91.555 55.826h3.891c3.107 0 4.186.682 4.552 1.089.61.674.724 2.097.333 4.112-.44 2.257-1.254 3.858-2.421 4.756-1.195.92-3.139 1.386-5.773 1.386h-2.786l2.204-11.342zm6.674-8.1H84.096a1.39 1.39 0 0 0-1.363 1.123l-6.558 33.739a1.39 1.39 0 0 0 1.364 1.653h7.35a1.39 1.39 0 0 0 1.363-1.124l1.525-7.846h5.15c2.911 0 5.364-.318 7.286-.944 1.978-.642 3.797-1.731 5.408-3.238a16.52 16.52 0 0 0 3.258-4.086c.832-1.487 1.428-3.147 1.775-4.931.86-4.423.162-7.964-2.076-10.524-2.216-2.537-5.697-3.823-10.35-3.823zM87.666 68.557h4.47c2.964 0 5.17-.557 6.622-1.675 1.45-1.116 2.428-2.98 2.936-5.591.487-2.508.266-4.277-.665-5.308-.93-1.03-2.791-1.546-5.583-1.546h-5.035Zm10.563-19.445c4.251 0 7.354 1.117 9.303 3.348 1.95 2.232 2.537 5.347 1.759 9.346-.32 1.648-.862 3.154-1.624 4.518-.763 1.366-1.76 2.614-2.992 3.747-1.467 1.373-3.097 2.352-4.892 2.935-1.793.584-4.078.875-6.856.875h-6.295l-1.745 8.97h-7.35l6.558-33.739h14.133"></path><defs><radialGradient id="a" cx="0" cy="0" r="1" gradientTransform="matrix(84.04136 0 0 84.04136 38.426 42.169)" gradientUnits="userSpaceOnUse"><stop stop-color="#AEB2D5"></stop><stop offset=".3" stop-color="#AEB2D5"></stop><stop offset=".75" stop-color="#484C89"></stop><stop offset="1" stop-color="#484C89"></stop></radialGradient></defs>
    </symbol>

    <symbol id="python-icon" viewBox="0 0 128 128">
        <linearGradient id="python-original-a" gradientUnits="userSpaceOnUse" x1="70.252" y1="1237.476" x2="170.659" y2="1151.089" gradientTransform="matrix(.563 0 0 -.568 -29.215 707.817)"><stop offset="0" stop-color="#5A9FD4"></stop><stop offset="1" stop-color="#306998"></stop></linearGradient><linearGradient id="python-original-b" gradientUnits="userSpaceOnUse" x1="209.474" y1="1098.811" x2="173.62" y2="1149.537" gradientTransform="matrix(.563 0 0 -.568 -29.215 707.817)"><stop offset="0" stop-color="#FFD43B"></stop><stop offset="1" stop-color="#FFE873"></stop></linearGradient><path fill="url(#python-original-a)" d="M63.391 1.988c-4.222.02-8.252.379-11.8 1.007-10.45 1.846-12.346 5.71-12.346 12.837v9.411h24.693v3.137H29.977c-7.176 0-13.46 4.313-15.426 12.521-2.268 9.405-2.368 15.275 0 25.096 1.755 7.311 5.947 12.519 13.124 12.519h8.491V67.234c0-8.151 7.051-15.34 15.426-15.34h24.665c6.866 0 12.346-5.654 12.346-12.548V15.833c0-6.693-5.646-11.72-12.346-12.837-4.244-.706-8.645-1.027-12.866-1.008zM50.037 9.557c2.55 0 4.634 2.117 4.634 4.721 0 2.593-2.083 4.69-4.634 4.69-2.56 0-4.633-2.097-4.633-4.69-.001-2.604 2.073-4.721 4.633-4.721z" transform="translate(0 10.26)"></path><path fill="url(#python-original-b)" d="M91.682 28.38v10.966c0 8.5-7.208 15.655-15.426 15.655H51.591c-6.756 0-12.346 5.783-12.346 12.549v23.515c0 6.691 5.818 10.628 12.346 12.547 7.816 2.297 15.312 2.713 24.665 0 6.216-1.801 12.346-5.423 12.346-12.547v-9.412H63.938v-3.138h37.012c7.176 0 9.852-5.005 12.348-12.519 2.578-7.735 2.467-15.174 0-25.096-1.774-7.145-5.161-12.521-12.348-12.521h-9.268zM77.809 87.927c2.561 0 4.634 2.097 4.634 4.692 0 2.602-2.074 4.719-4.634 4.719-2.55 0-4.633-2.117-4.633-4.719 0-2.595 2.083-4.692 4.633-4.692z" transform="translate(0 10.26)"></path><radialGradient id="python-original-c" cx="1825.678" cy="444.45" r="26.743" gradientTransform="matrix(0 -.24 -1.055 0 532.979 557.576)" gradientUnits="userSpaceOnUse"><stop offset="0" stop-color="#B8B8B8" stop-opacity=".498"></stop><stop offset="1" stop-color="#7F7F7F" stop-opacity="0"></stop></radialGradient><path opacity=".444" fill="url(#python-original-c)" d="M97.309 119.597c0 3.543-14.816 6.416-33.091 6.416-18.276 0-33.092-2.873-33.092-6.416 0-3.544 14.815-6.417 33.092-6.417 18.275 0 33.091 2.872 33.091 6.417z"></path>
    </symbol>

    <symbol id="react-icon" viewBox="0 0 128 128">
        <g fill="#61DAFB"><circle cx="64" cy="64" r="11.4"></circle><path d="M107.3 45.2c-2.2-.8-4.5-1.6-6.9-2.3.6-2.4 1.1-4.8 1.5-7.1 2.1-13.2-.2-22.5-6.6-26.1-1.9-1.1-4-1.6-6.4-1.6-7 0-15.9 5.2-24.9 13.9-9-8.7-17.9-13.9-24.9-13.9-2.4 0-4.5.5-6.4 1.6-6.4 3.7-8.7 13-6.6 26.1.4 2.3.9 4.7 1.5 7.1-2.4.7-4.7 1.4-6.9 2.3C8.2 50 1.4 56.6 1.4 64s6.9 14 19.3 18.8c2.2.8 4.5 1.6 6.9 2.3-.6 2.4-1.1 4.8-1.5 7.1-2.1 13.2.2 22.5 6.6 26.1 1.9 1.1 4 1.6 6.4 1.6 7.1 0 16-5.2 24.9-13.9 9 8.7 17.9 13.9 24.9 13.9 2.4 0 4.5-.5 6.4-1.6 6.4-3.7 8.7-13 6.6-26.1-.4-2.3-.9-4.7-1.5-7.1 2.4-.7 4.7-1.4 6.9-2.3 12.5-4.8 19.3-11.4 19.3-18.8s-6.8-14-19.3-18.8zM92.5 14.7c4.1 2.4 5.5 9.8 3.8 20.3-.3 2.1-.8 4.3-1.4 6.6-5.2-1.2-10.7-2-16.5-2.5-3.4-4.8-6.9-9.1-10.4-13 7.4-7.3 14.9-12.3 21-12.3 1.3 0 2.5.3 3.5.9zM81.3 74c-1.8 3.2-3.9 6.4-6.1 9.6-3.7.3-7.4.4-11.2.4-3.9 0-7.6-.1-11.2-.4-2.2-3.2-4.2-6.4-6-9.6-1.9-3.3-3.7-6.7-5.3-10 1.6-3.3 3.4-6.7 5.3-10 1.8-3.2 3.9-6.4 6.1-9.6 3.7-.3 7.4-.4 11.2-.4 3.9 0 7.6.1 11.2.4 2.2 3.2 4.2 6.4 6 9.6 1.9 3.3 3.7 6.7 5.3 10-1.7 3.3-3.4 6.6-5.3 10zm8.3-3.3c1.5 3.5 2.7 6.9 3.8 10.3-3.4.8-7 1.4-10.8 1.9 1.2-1.9 2.5-3.9 3.6-6 1.2-2.1 2.3-4.2 3.4-6.2zM64 97.8c-2.4-2.6-4.7-5.4-6.9-8.3 2.3.1 4.6.2 6.9.2 2.3 0 4.6-.1 6.9-.2-2.2 2.9-4.5 5.7-6.9 8.3zm-18.6-15c-3.8-.5-7.4-1.1-10.8-1.9 1.1-3.3 2.3-6.8 3.8-10.3 1.1 2 2.2 4.1 3.4 6.1 1.2 2.2 2.4 4.1 3.6 6.1zm-7-25.5c-1.5-3.5-2.7-6.9-3.8-10.3 3.4-.8 7-1.4 10.8-1.9-1.2 1.9-2.5 3.9-3.6 6-1.2 2.1-2.3 4.2-3.4 6.2zM64 30.2c2.4 2.6 4.7 5.4 6.9 8.3-2.3-.1-4.6-.2-6.9-.2-2.3 0-4.6.1-6.9.2 2.2-2.9 4.5-5.7 6.9-8.3zm22.2 21l-3.6-6c3.8.5 7.4 1.1 10.8 1.9-1.1 3.3-2.3 6.8-3.8 10.3-1.1-2.1-2.2-4.2-3.4-6.2zM31.7 35c-1.7-10.5-.3-17.9 3.8-20.3 1-.6 2.2-.9 3.5-.9 6 0 13.5 4.9 21 12.3-3.5 3.8-7 8.2-10.4 13-5.8.5-11.3 1.4-16.5 2.5-.6-2.3-1-4.5-1.4-6.6zM7 64c0-4.7 5.7-9.7 15.7-13.4 2-.8 4.2-1.5 6.4-2.1 1.6 5 3.6 10.3 6 15.6-2.4 5.3-4.5 10.5-6 15.5C15.3 75.6 7 69.6 7 64zm28.5 49.3c-4.1-2.4-5.5-9.8-3.8-20.3.3-2.1.8-4.3 1.4-6.6 5.2 1.2 10.7 2 16.5 2.5 3.4 4.8 6.9 9.1 10.4 13-7.4 7.3-14.9 12.3-21 12.3-1.3 0-2.5-.3-3.5-.9zM96.3 93c1.7 10.5.3 17.9-3.8 20.3-1 .6-2.2.9-3.5.9-6 0-13.5-4.9-21-12.3 3.5-3.8 7-8.2 10.4-13 5.8-.5 11.3-1.4 16.5-2.5.6 2.3 1 4.5 1.4 6.6zm9-15.6c-2 .8-4.2 1.5-6.4 2.1-1.6-5-3.6-10.3-6-15.6 2.4-5.3 4.5-10.5 6-15.5 13.8 4 22.1 10 22.1 15.6 0 4.7-5.8 9.7-15.7 13.4z"></path></g>
    </symbol>

    <symbol id="sass-icon" viewBox="0 0 128 128">
        <path fill-rule="evenodd" clip-rule="evenodd" fill="#CB6699" d="M1.219 56.156c0 .703.207 1.167.323 1.618.756 2.933 2.381 5.45 4.309 7.746 2.746 3.272 6.109 5.906 9.554 8.383 2.988 2.148 6.037 4.248 9.037 6.38.515.366 1.002.787 1.561 1.236-.481.26-.881.489-1.297.7-3.959 2.008-7.768 4.259-11.279 6.986-2.116 1.644-4.162 3.391-5.607 5.674-2.325 3.672-3.148 7.584-1.415 11.761.506 1.22 1.278 2.274 2.367 3.053.353.252.749.502 1.162.6 1.058.249 2.136.412 3.207.609l3.033-.002c3.354-.299 6.407-1.448 9.166-3.352 4.312-2.976 7.217-6.966 8.466-12.087.908-3.722.945-7.448-.125-11.153a11.696 11.696 0 00-.354-1.014c-.13-.333-.283-.657-.463-1.072l6.876-3.954.103.088c-.125.409-.258.817-.371 1.23-.817 2.984-1.36 6.02-1.165 9.117.208 3.3 1.129 6.389 3.061 9.146 1.562 2.23 5.284 2.313 6.944.075.589-.795 1.16-1.626 1.589-2.513 1.121-2.315 2.159-4.671 3.23-7.011l.187-.428c-.077 1.108-.167 2.081-.208 3.055-.064 1.521.025 3.033.545 4.48.445 1.238 1.202 2.163 2.62 2.326.97.111 1.743-.333 2.456-.896a10.384 10.384 0 002.691-3.199c1.901-3.491 3.853-6.961 5.576-10.54 1.864-3.871 3.494-7.855 5.225-11.792l.286-.698c.409 1.607.694 3.181 1.219 4.671.61 1.729 1.365 3.417 2.187 5.058.389.775.344 1.278-.195 1.928-2.256 2.72-4.473 5.473-6.692 8.223-.491.607-.98 1.225-1.389 1.888a3.701 3.701 0 00-.48 1.364 1.737 1.737 0 001.383 1.971 9.661 9.661 0 002.708.193c3.097-.228 5.909-1.315 8.395-3.157 3.221-2.386 4.255-5.642 3.475-9.501-.211-1.047-.584-2.065-.947-3.074-.163-.455-.174-.774.123-1.198 2.575-3.677 4.775-7.578 6.821-11.569.081-.157.164-.314.306-.482.663 3.45 1.661 6.775 3.449 9.792-.912.879-1.815 1.676-2.632 2.554-1.799 1.934-3.359 4.034-4.173 6.595-.35 1.104-.619 2.226-.463 3.405.242 1.831 1.742 3.021 3.543 2.604 3.854-.892 7.181-2.708 9.612-5.925 1.636-2.166 1.785-4.582 1.1-7.113-.188-.688-.411-1.365-.651-2.154.951-.295 1.878-.649 2.837-.868 4.979-1.136 9.904-.938 14.702.86 2.801 1.05 5.064 2.807 6.406 5.571 1.639 3.379.733 6.585-2.452 8.721-.297.199-.637.356-.883.605a.869.869 0 00-.205.67c.021.123.346.277.533.275 1.047-.008 1.896-.557 2.711-1.121 2.042-1.413 3.532-3.314 3.853-5.817l.063-.188-.077-1.63c-.031-.094.023-.187.016-.258-.434-3.645-2.381-6.472-5.213-8.688-3.28-2.565-7.153-3.621-11.249-3.788a25.401 25.401 0 00-9.765 1.503c-.897.325-1.786.71-2.688 1.073-.121-.219-.251-.429-.358-.646-.926-1.896-2.048-3.708-2.296-5.882-.176-1.544-.392-3.086-.025-4.613.353-1.469.813-2.913 1.246-4.362.223-.746.066-1.164-.646-1.5a2.854 2.854 0 00-.786-.258c-1.75-.254-3.476-.109-5.171.384-.6.175-1.036.511-1.169 1.175-.076.381-.231.746-.339 1.122-.443 1.563-.757 3.156-1.473 4.645-1.794 3.735-3.842 7.329-5.938 10.897-.227.385-.466.763-.752 1.23-.736-1.54-1.521-2.922-1.759-4.542-.269-1.832-.481-3.661-.025-5.479.339-1.356.782-2.687 1.19-4.025.193-.636.104-.97-.472-1.305-.291-.169-.62-.319-.948-.368a11.643 11.643 0 00-5.354.438c-.543.176-.828.527-.994 1.087-.488 1.652-.904 3.344-1.589 4.915-2.774 6.36-5.628 12.687-8.479 19.013-.595 1.321-1.292 2.596-1.963 3.882-.17.326-.418.613-.63.919-.17-.201-.236-.339-.235-.477.005-.813-.092-1.65.063-2.436a172.189 172.189 0 011.578-7.099c.47-1.946 1.017-3.874 1.538-5.807.175-.647.178-1.252-.287-1.796-.781-.911-2.413-1.111-3.381-.409l-.428.242.083-.69c.204-1.479.245-2.953-.161-4.41-.506-1.816-1.802-2.861-3.686-2.803-.878.027-1.8.177-2.613.497-3.419 1.34-6.048 3.713-8.286 6.568a2.592 2.592 0 01-.757.654c-2.893 1.604-5.795 3.188-8.696 4.778l-3.229 1.769c-.866-.826-1.653-1.683-2.546-2.41-2.727-2.224-5.498-4.393-8.244-6.592-2.434-1.949-4.792-3.979-6.596-6.56-1.342-1.92-2.207-4.021-2.29-6.395-.105-3.025.753-5.789 2.293-8.362 1.97-3.292 4.657-5.934 7.611-8.327 3.125-2.53 6.505-4.678 10.008-6.639 4.901-2.743 9.942-5.171 15.347-6.774 5.542-1.644 11.165-2.585 16.965-1.929 2.28.258 4.494.78 6.527 1.895 1.557.853 2.834 1.97 3.428 3.716.586 1.718.568 3.459.162 5.204-.825 3.534-2.76 6.447-5.195 9.05-3.994 4.267-8.866 7.172-14.351 9.091a39.478 39.478 0 01-9.765 2.083c-2.729.229-5.401-.013-7.985-.962-1.711-.629-3.201-1.591-4.399-2.987-.214-.25-.488-.521-.887-.287-.391.23-.46.602-.329.979.219.626.421 1.278.762 1.838.857 1.405 2.107 2.424 3.483 3.298 2.643 1.681 5.597 2.246 8.66 2.377 4.648.201 9.183-.493 13.654-1.74 6.383-1.78 11.933-4.924 16.384-9.884 3.706-4.13 6.353-8.791 6.92-14.419.277-2.747-.018-5.438-1.304-7.944-1.395-2.715-3.613-4.734-6.265-6.125C68.756 18.179 64.588 17 60.286 17h-4.31c-5.21 0-10.247 1.493-15.143 3.274-3.706 1.349-7.34 2.941-10.868 4.703-7.683 3.839-14.838 8.468-20.715 14.833-2.928 3.171-5.407 6.67-6.833 10.79a40.494 40.494 0 00-1.111 3.746m27.839 36.013c-.333 4.459-2.354 8.074-5.657 11.002-1.858 1.646-3.989 2.818-6.471 3.23-.9.149-1.821.185-2.694-.188-1.245-.532-1.524-1.637-1.548-2.814-.037-1.876.62-3.572 1.521-5.186 1.176-2.104 2.9-3.708 4.741-5.206 2.9-2.361 6.046-4.359 9.268-6.245l.243-.1c.498 1.84.735 3.657.597 5.507zM54.303 70.98c-.235 1.424-.529 2.849-.945 4.229-1.438 4.777-3.285 9.406-5.282 13.973-.369.845-.906 1.616-1.373 2.417a1.689 1.689 0 01-.283.334c-.578.571-1.126.541-1.418-.206-.34-.868-.549-1.797-.729-2.716-.121-.617-.092-1.265-.13-1.897.039-4.494 1.41-8.578 3.736-12.38.959-1.568 2.003-3.062 3.598-4.054a6.27 6.27 0 011.595-.706c.85-.239 1.372.154 1.231 1.006zm17.164 21.868l6.169-7.203c.257 2.675-4.29 8.015-6.169 7.203zm19.703-4.847c-.436.25-.911.43-1.358.661-.409.212-.544-.002-.556-.354a2.385 2.385 0 01.093-.721c.833-2.938 2.366-5.446 4.647-7.486l.16-.082c1.085 3.035-.169 6.368-2.986 7.982z"></path>
    </symbol>

    <symbol id="swift-icon" viewBox="0 0 128 128">
        <path fill="#f05138" d="M126.33 34.06a39.32 39.32 0 00-.79-7.83 28.78 28.78 0 00-2.65-7.58 28.84 28.84 0 00-4.76-6.32 23.42 23.42 0 00-6.62-4.55 27.27 27.27 0 00-7.68-2.53c-2.65-.51-5.56-.51-8.21-.76H30.25a45.46 45.46 0 00-6.09.51 21.82 21.82 0 00-5.82 1.52c-.53.25-1.32.51-1.85.76a33.82 33.82 0 00-5 3.28c-.53.51-1.06.76-1.59 1.26a22.41 22.41 0 00-4.76 6.32 23.61 23.61 0 00-2.65 7.58 78.5 78.5 0 00-.79 7.83v60.39a39.32 39.32 0 00.79 7.83 28.78 28.78 0 002.65 7.58 28.84 28.84 0 004.76 6.32 23.42 23.42 0 006.62 4.55 27.27 27.27 0 007.68 2.53c2.65.51 5.56.51 8.21.76h63.22a45.08 45.08 0 008.21-.76 27.27 27.27 0 007.68-2.53 30.13 30.13 0 006.62-4.55 22.41 22.41 0 004.76-6.32 23.61 23.61 0 002.65-7.58 78.49 78.49 0 00.79-7.83V34.06z"></path><path fill="#fefefe" d="M85 96.5c-11.11 6.13-26.38 6.76-41.75.47A64.53 64.53 0 0113.84 73a50 50 0 0010.85 6.32c15.87 7.1 31.73 6.61 42.9 0-15.9-11.66-29.4-26.82-39.46-39.2a43.47 43.47 0 01-5.29-6.82c12.16 10.61 31.5 24 38.38 27.79a271.77 271.77 0 01-27-32.34 266.8 266.8 0 0044.47 34.87c.71.38 1.26.7 1.7 1a32.7 32.7 0 001.21-3.51c3.71-12.89-.53-27.54-9.79-39.67C93.25 33.81 106 57.05 100.66 76.51c-.14.53-.29 1-.45 1.55l.19.22c10.59 12.63 7.68 26 6.35 23.5C101 91 90.37 94.33 85 96.5z"></path>
    </symbol>

    <symbol id="tailwindcss-icon" viewBox="0 0 128 128">
        <path d="M64.004 25.602c-17.067 0-27.73 8.53-32 25.597 6.398-8.531 13.867-11.73 22.398-9.597 4.871 1.214 8.352 4.746 12.207 8.66C72.883 56.629 80.145 64 96.004 64c17.066 0 27.73-8.531 32-25.602-6.399 8.536-13.867 11.735-22.399 9.602-4.87-1.215-8.347-4.746-12.207-8.66-6.27-6.367-13.53-13.738-29.394-13.738zM32.004 64c-17.066 0-27.73 8.531-32 25.602C6.402 81.066 13.87 77.867 22.402 80c4.871 1.215 8.352 4.746 12.207 8.66 6.274 6.367 13.536 13.738 29.395 13.738 17.066 0 27.73-8.53 32-25.597-6.399 8.531-13.867 11.73-22.399 9.597-4.87-1.214-8.347-4.746-12.207-8.66C55.128 71.371 47.868 64 32.004 64zm0 0" fill="#38bdf8"></path>
    </symbol>

    <symbol id="typescript-icon" viewBox="0 0 128 128">
        <path fill="#fff" d="M22.67 47h99.67v73.67H22.67z"></path><path data-name="original" fill="#007acc" d="M1.5 63.91v62.5h125v-125H1.5zm100.73-5a15.56 15.56 0 017.82 4.5 20.58 20.58 0 013 4c0 .16-5.4 3.81-8.69 5.85-.12.08-.6-.44-1.13-1.23a7.09 7.09 0 00-5.87-3.53c-3.79-.26-6.23 1.73-6.21 5a4.58 4.58 0 00.54 2.34c.83 1.73 2.38 2.76 7.24 4.86 8.95 3.85 12.78 6.39 15.16 10 2.66 4 3.25 10.46 1.45 15.24-2 5.2-6.9 8.73-13.83 9.9a38.32 38.32 0 01-9.52-.1 23 23 0 01-12.72-6.63c-1.15-1.27-3.39-4.58-3.25-4.82a9.34 9.34 0 011.15-.73L82 101l3.59-2.08.75 1.11a16.78 16.78 0 004.74 4.54c4 2.1 9.46 1.81 12.16-.62a5.43 5.43 0 00.69-6.92c-1-1.39-3-2.56-8.59-5-6.45-2.78-9.23-4.5-11.77-7.24a16.48 16.48 0 01-3.43-6.25 25 25 0 01-.22-8c1.33-6.23 6-10.58 12.82-11.87a31.66 31.66 0 019.49.26zm-29.34 5.24v5.12H56.66v46.23H45.15V69.26H28.88v-5a49.19 49.19 0 01.12-5.17C29.08 59 39 59 51 59h21.83z"></path>
    </symbol>

    <symbol id="unity-icon" viewBox="0 0 128 128">
        <path d="m63.991 128 51.702-29.855-19.817-11.461-20.26 11.704a1.151 1.151 0 0 1-1.125-.009 1.145 1.145 0 0 1-.568-.975V69.608c0-.819.424-1.56 1.133-1.968L99.13 53.737a1.119 1.119 0 0 1 1.124.009c.352.195.572.564.576.966V78.11l19.83 11.454V29.855L63.99 62.566Zm0 0"></path><path fill="#4d4d4d" d="m52.397 98.401-20.27-11.718-19.832 11.46L63.991 128V62.566L7.34 29.854V89.56l19.825-11.45V54.714c.009-.401.225-.77.572-.966a1.13 1.13 0 0 1 1.13-.009L52.953 67.64a2.275 2.275 0 0 1 1.133 1.97v27.8a1.156 1.156 0 0 1-.565.98 1.131 1.131 0 0 1-1.124.012"></path><path fill="gray" d="M68.959 0v22.9L89.22 34.597c.348.203.555.576.555.984 0 .403-.212.772-.555.975L65.137 50.468a2.302 2.302 0 0 1-2.27 0L38.791 36.556a1.122 1.122 0 0 1-.56-.975 1.127 1.127 0 0 1 .56-.984L59.048 22.9V0L7.339 29.855l56.652 32.711 56.665-32.71Zm0 0"></path>
    </symbol>

    <symbol id="visualstudio-icon" viewBox="0 0 128 128">
        <defs><linearGradient id="a" x1="48" x2="48" y1="97.75" y2="2.25" gradientTransform="matrix(1 0 0 -1 0 97.75)" gradientUnits="userSpaceOnUse"><stop offset="0" stop-color="#fff"></stop><stop offset="1" stop-color="#fff" stop-opacity="0"></stop></linearGradient></defs><path fill="#52218a" d="M14.39 26.295a5.333 5.333 0 0 0-1.417.373l-9.694 4A5.333 5.333 0 0 0 0 35.561v56.88a5.333 5.333 0 0 0 3.28 4.893l9.693 4.066a5.333 5.333 0 0 0 5.521-.865l2.172-1.867a2.947 2.947 0 0 1-4.666-2.4V31.734a2.947 2.947 0 0 1 4.666-2.4l-2.172-1.799a5.333 5.333 0 0 0-4.103-1.24z"></path><path fill="#6c33af" d="M94.75.416A8 8 0 0 0 88 2.668l-82.666 91.4A3.08 3.08 0 0 1 0 92.002v.44a5.333 5.333 0 0 0 3.28 4.892l9.693 4.066a5.333 5.333 0 0 0 5.521-.865l2.172-1.867 99.08-81.24A5.053 5.053 0 0 1 128 21.334v-.307a8 8 0 0 0-4.533-7.213L97.094 1.121A8 8 0 0 0 94.75.416Z"></path><path fill="#854cc7" d="M14.871 26.238a5.333 5.333 0 0 0-1.898.43l-9.694 4A5.333 5.333 0 0 0 0 35.561v.441a3.08 3.08 0 0 1 5.334-2.066L88 125.334a8 8 0 0 0 9.094 1.547l26.373-12.694a8 8 0 0 0 4.533-7.212v-.307a5.053 5.053 0 0 1-8.254 3.906l-99.08-81.24-2.172-1.865a5.333 5.333 0 0 0-3.623-1.23z"></path><path fill="#b179f1" d="M94.75.416a8 8 0 0 0-5.674 1.469A4.693 4.693 0 0 1 96 6.015v116a4.693 4.693 0 0 1-8 3.319 8 8 0 0 0 9.094 1.547l26.373-12.68a8 8 0 0 0 4.533-7.213V21.016a8 8 0 0 0-4.533-7.215L97.094 1.12A8 8 0 0 0 94.75.416Zm-5.674 1.469A4.693 4.693 0 0 0 88 2.668a8 8 0 0 1 1.076-.783Z"></path><path fill="url(#a)" fill-rule="evenodd" d="M94.145.348a8 8 0 0 0-3.026.386A8 8 0 0 0 88 2.668L45.494 49.682 20.666 29.334l-2.172-1.865a5.333 5.333 0 0 0-4.814-1.108 3.4 3.4 0 0 0-.707.24l-9.694 4.067A5.333 5.333 0 0 0 0 35.162v57.679a5.333 5.333 0 0 0 3.28 4.493l9.693 4a3.4 3.4 0 0 0 .707.24 5.333 5.333 0 0 0 4.814-1.105l2.172-1.801 24.828-20.346L88 125.334a8 8 0 0 0 3.854 2.135 8 8 0 0 0 5.24-.588l26.373-12.68a8 8 0 0 0 4.533-7.213V21.016a8 8 0 0 0-4.533-7.215L97.094 1.12a8 8 0 0 0-2.95-.773ZM96 36.908v54.186L62.947 64.002Zm-80 8.787 16.547 18.307L16 82.309Z" opacity=".25"></path>
    </symbol>

    <symbol id="vscode-icon" viewBox="0 0 48 48">
        <path fill="#29b6f6" d="M44,11.11v25.78c0,1.27-0.79,2.4-1.98,2.82l-8.82,4.14L34,33V15L33.2,4.15l8.82,4.14 C43.21,8.71,44,9.84,44,11.11z"></path><path fill="#0277bd" d="M9,33.896L34,15V5.353c0-1.198-1.482-1.758-2.275-0.86L4.658,29.239 c-0.9,0.83-0.849,2.267,0.107,3.032c0,0,1.324,1.232,1.803,1.574C7.304,34.37,8.271,34.43,9,33.896z"></path><path fill="#0288d1" d="M9,14.104L34,33v9.647c0,1.198-1.482,1.758-2.275,0.86L4.658,18.761 c-0.9-0.83-0.849-2.267,0.107-3.032c0,0,1.324-1.232,1.803-1.574C7.304,13.63,8.271,13.57,9,14.104z"></path>
    </symbol>

    <symbol id="xcode-icon" viewBox="0 0 128 128">
        <linearGradient id="xcode-original-a" gradientUnits="userSpaceOnUse" x1="63.947" y1="114.165" x2="63.947" y2="13.784"><stop offset="0" stop-color="#1578e4"></stop><stop offset="1" stop-color="#00c3f2"></stop></linearGradient><path d="M35.7 13.8h56.5c12.1 0 21.9 9.8 21.9 21.9v56.5c0 12.1-9.8 21.9-21.9 21.9H35.7c-12.1 0-21.9-9.8-21.9-21.9V35.7c0-12.1 9.8-21.9 21.9-21.9z" fill="url(#xcode-original-a)"></path><path fill="#FFF" d="M90.5 19.2H37.4c-10.1 0-18.3 8.2-18.3 18.3v53.1c0 10.1 8.2 18.3 18.3 18.3h53.1c10.1 0 18.3-8.2 18.3-18.3V37.4c0-10.1-8.2-18.2-18.3-18.2zm16.8 71.6c0 9.2-7.4 16.6-16.6 16.6H37.2c-9.1 0-16.6-7.4-16.6-16.6V37.2c0-9.2 7.4-16.6 16.6-16.6h53.6c9.1 0 16.6 7.4 16.6 16.6v53.6z"></path><path d="M64.1 22.8c-22.6 0-41 18.4-41 41s18.4 41 41 41c22.7 0 41-18.4 41-41s-18.4-41-41-41zm0 81.4c-22.3 0-40.4-18.1-40.4-40.4s18.1-40.4 40.4-40.4c22.3 0 40.4 18.1 40.4 40.4s-18.1 40.4-40.4 40.4z" fill="#69c5f3"></path><path d="M64.1 31.2c-18.1 0-32.7 14.6-32.7 32.7S46 96.5 64.1 96.5s32.7-14.6 32.7-32.7-14.7-32.6-32.7-32.6zm0 64.6c-17.7 0-32-14.3-32-32s14.3-32 32-32 32 14.3 32 32-14.4 32-32 32z" fill="#68c5f4"></path><path fill="#FFF" d="M32.8 71.3h62.4c2.6 0 4.6 2.1 4.6 4.6 0 2.6-2.1 4.6-4.6 4.6H32.8c-2.6 0-4.6-2.1-4.6-4.6-.1-2.5 2-4.6 4.6-4.6z"></path><path d="M32.6 72.2h62.6c2 0 3.7 1.6 3.7 3.7v.1c0 2-1.6 3.7-3.7 3.7H32.6c-2 0-3.7-1.6-3.7-3.7v-.2c.1-2 1.7-3.6 3.7-3.6z" fill="#0a93e9"></path><path d="M31.1 79.3h65.7l.5-.3H30.6l.5.3z" fill="#1694ea"></path><path d="M29.6 78.1h68.6l.2-.3h-69l.2.3z" fill="#319dec"></path><path d="M29 76.2h69.9v-.4H29v.4z" fill="#65b1ee"></path><path d="M29.7 73.7h68.6l.1.2.1.2h-69l.1-.2.1-.2z" fill="#8ec6f3"></path><path d="M31.2 72.5h65.6l.3.1.3.2H30.6l.3-.2.3-.1z" fill="#95caf3"></path><linearGradient id="xcode-original-b" gradientUnits="userSpaceOnUse" x1="94.037" y1="79.666" x2="94.037" y2="72.184"><stop offset="0" stop-color="#1492e7"></stop><stop offset="1" stop-color="#dbedfb"></stop></linearGradient><path d="M93.4 72.2h-.5s1.7 1.2 1.7 3.9c0 2.5-1.7 3.6-1.7 3.6h.5s1.7-.8 1.7-3.6c0-3-1.7-3.9-1.7-3.9z" fill="url(#xcode-original-b)"></path><linearGradient id="xcode-original-c" gradientUnits="userSpaceOnUse" x1="89.042" y1="79.666" x2="89.042" y2="72.184"><stop offset="0" stop-color="#1492e7"></stop><stop offset="1" stop-color="#dbedfb"></stop></linearGradient><path d="M88.6 72.2h-.5s1.5 1.4 1.5 3.9c0 2.2-1.5 3.6-1.5 3.6h.5s1.5-1.1 1.5-3.6c-.1-2.7-1.5-3.9-1.5-3.9z" fill="url(#xcode-original-c)"></path><linearGradient id="xcode-original-d" gradientUnits="userSpaceOnUse" x1="63.947" y1="79.666" x2="63.947" y2="72.184"><stop offset="0" stop-color="#1492e7"></stop><stop offset="1" stop-color="#dbedfb"></stop></linearGradient><path d="M63.7 72.2h.5v7.5h-.5v-7.5z" fill="url(#xcode-original-d)"></path><linearGradient id="xcode-original-e" gradientUnits="userSpaceOnUse" x1="58.952" y1="79.666" x2="58.952" y2="72.184"><stop offset="0" stop-color="#1492e7"></stop><stop offset="1" stop-color="#dbedfb"></stop></linearGradient><path d="M58.8 72.2h.5s-.2 1.9-.2 3.9c0 1.8.2 3.6.2 3.6h-.5s-.2-1.8-.2-3.6c0-2 .2-3.9.2-3.9z" fill="url(#xcode-original-e)"></path><linearGradient id="xcode-original-f" gradientUnits="userSpaceOnUse" x1="53.958" y1="79.666" x2="53.958" y2="72.184"><stop offset="0" stop-color="#1492e7"></stop><stop offset="1" stop-color="#dbedfb"></stop></linearGradient><path d="M54 72.2h.5s-.5 1.9-.5 3.9c0 1.8.5 3.6.5 3.6H54s-.5-1.8-.5-3.6c0-2 .5-3.9.5-3.9z" fill="url(#xcode-original-f)"></path><linearGradient id="xcode-original-g" gradientUnits="userSpaceOnUse" x1="48.963" y1="79.666" x2="48.963" y2="72.184"><stop offset="0" stop-color="#1492e7"></stop><stop offset="1" stop-color="#dbedfb"></stop></linearGradient><path d="M49.1 72.2h.5s-.7 1.9-.7 3.9c0 1.8.7 3.6.7 3.6h-.5s-.7-1.8-.7-3.6c0-2 .7-3.9.7-3.9z" fill="url(#xcode-original-g)"></path><linearGradient id="xcode-original-h" gradientUnits="userSpaceOnUse" x1="43.968" y1="79.666" x2="43.968" y2="72.184"><stop offset="0" stop-color="#1492e7"></stop><stop offset="1" stop-color="#dbedfb"></stop></linearGradient><path d="M44.2 72.2h.5s-1 1.6-1 3.9c0 2 1 3.6 1 3.6h-.5s-1-1.6-1-3.6c0-2.3 1-3.9 1-3.9z" fill="url(#xcode-original-h)"></path><linearGradient id="xcode-original-i" gradientUnits="userSpaceOnUse" x1="38.852" y1="79.666" x2="38.852" y2="72.184"><stop offset="0" stop-color="#1492e7"></stop><stop offset="1" stop-color="#dbedfb"></stop></linearGradient><path d="M39.3 72.2h.5s-1.5 1.4-1.5 3.9c0 2.2 1.5 3.6 1.5 3.6h-.5s-1.5-1.1-1.5-3.6c.1-2.7 1.5-3.9 1.5-3.9z" fill="url(#xcode-original-i)"></path><linearGradient id="xcode-original-j" gradientUnits="userSpaceOnUse" x1="33.857" y1="79.666" x2="33.857" y2="72.184"><stop offset="0" stop-color="#1492e7"></stop><stop offset="1" stop-color="#dbedfb"></stop></linearGradient><path d="M34.5 72.2h.5s-1.7 1.2-1.7 3.9c0 2.5 1.7 3.6 1.7 3.6h-.5s-1.7-.8-1.7-3.6c0-3 1.7-3.9 1.7-3.9z" fill="url(#xcode-original-j)"></path><path fill="#FFF" d="M62 34.1l31.2 54c1.3 2.2.5 5-1.7 6.3-2.2 1.3-5 .5-6.3-1.7L54 38.7c-1.3-2.2-.5-5 1.7-6.3 2.2-1.3 5-.5 6.3 1.7z"></path><linearGradient id="xcode-original-k" gradientUnits="userSpaceOnUse" x1="73.58" y1="94.25" x2="73.58" y2="32.642"><stop offset="0" stop-color="#1285e7"></stop><stop offset="1" stop-color="#00b5ef"></stop></linearGradient><path d="M61.2 34.5l31.3 54.2c1 1.7.4 4-1.3 5l-.2.1c-1.7 1-4 .4-5-1.3L54.7 38.2c-1-1.7-.4-4 1.3-5l.1-.1c1.8-1 4.1-.4 5.1 1.4z" fill="url(#xcode-original-k)"></path><linearGradient id="xcode-original-l" gradientUnits="userSpaceOnUse" x1="87.464" y1="93.978" x2="54.081" y2="36.156"><stop offset="0" stop-color="#2b90e7"></stop><stop offset="1" stop-color="#00b6ef"></stop></linearGradient><path d="M54.2 36.7L87 93.6l.2.1.2.1.2.1-33.4-57.8v.6z" fill="url(#xcode-original-l)"></path><linearGradient id="xcode-original-m" gradientUnits="userSpaceOnUse" x1="89.073" y1="94.327" x2="54.583" y2="34.589"><stop offset="0" stop-color="#3795ea"></stop><stop offset="1" stop-color="#49c4f2"></stop></linearGradient><path d="M54.5 34.8l34.3 59.4h.4L54.7 34.5l-.1.2-.1.1z" fill="url(#xcode-original-m)"></path><linearGradient id="xcode-original-n" gradientUnits="userSpaceOnUse" x1="91.026" y1="93.735" x2="56.072" y2="33.193"><stop offset="0" stop-color="#3696ea"></stop><stop offset="1" stop-color="#90d9f6"></stop></linearGradient><path d="M55.9 33.3l35 60.5.3-.2-35-60.5-.3.2z" fill="url(#xcode-original-n)"></path><linearGradient id="xcode-original-o" gradientUnits="userSpaceOnUse" x1="92.582" y1="92.332" x2="58.065" y2="32.547"><stop offset="0" stop-color="#3097ea"></stop><stop offset="1" stop-color="#b5e5f9"></stop></linearGradient><path d="M58.4 32.7L92.6 92l-.1.2-.1.2-34.5-59.8h.2l.3.1z" fill="url(#xcode-original-o)"></path><linearGradient id="xcode-original-p" gradientUnits="userSpaceOnUse" x1="93.083" y1="90.686" x2="59.741" y2="32.936"><stop offset="0" stop-color="#3a98ea"></stop><stop offset="1" stop-color="#bce7fa"></stop></linearGradient><path d="M60.2 33.3L93 90.1v.6L59.6 33l.2.1.2.1.2.1z" fill="url(#xcode-original-p)"></path><path fill="#3c98ea" d="M91.5 86.9l-.2-.4s-.2 2-2.4 3.4c-2.1 1.3-4 .4-4 .4l.2.4s1.6 1.1 4-.4c2.4-1.4 2.4-3.4 2.4-3.4zM89 82.7l-.2-.4s-.5 2-2.6 3.2c-1.9 1.2-3.8.6-3.8.6l.2.4s1.7.7 3.9-.6c2.2-1.3 2.5-3.2 2.5-3.2z"></path><path d="M86.6 78.5l-.2-.4s-.9 1.7-2.8 2.8c-1.7 1-3.6 1-3.6 1l.2.4s1.8 0 3.6-1c1.9-1.1 2.8-2.8 2.8-2.8z" fill="#4ca4ed"></path><path d="M84.2 74.3l-.2-.4s-1.3 1.7-3 2.6c-1.6.9-3.5 1.2-3.5 1.2l.2.4s1.9-.3 3.5-1.2c1.6-.9 3-2.6 3-2.6z" fill="#4da7ee"></path><linearGradient id="xcode-original-q" gradientUnits="userSpaceOnUse" x1="67.981" y1="61.226" x2="74.457" y2="57.487"><stop offset="0" stop-color="#00a4ec"></stop><stop offset="1" stop-color="#b9dff6"></stop></linearGradient><path d="M74.3 57.3l.2.4s-1.7.8-3.4 1.7c-1.6.9-3 2.1-3 2.1l-.2-.4s1.5-1.2 3-2.1c1.7-.9 3.4-1.7 3.4-1.7z" fill="url(#xcode-original-q)"></path><linearGradient id="xcode-original-r" gradientUnits="userSpaceOnUse" x1="65.487" y1="56.906" x2="71.962" y2="53.167"><stop offset="0" stop-color="#00a4ec"></stop><stop offset="1" stop-color="#b9dff6"></stop></linearGradient><path d="M71.9 53.1l.2.4s-1.9.6-3.5 1.6c-1.6.9-2.9 2.3-2.9 2.3l-.2-.4s1.3-1.4 2.9-2.3c1.6-1.1 3.5-1.6 3.5-1.6z" fill="url(#xcode-original-r)"></path><path d="M67.4 49.8c1.3-.4 2.3-.6 2.3-.6l-.2-.4s-.9.1-1.9.5c-.6.2-.7.7-.2.5z" fill="#9dd4f7"></path><linearGradient id="xcode-original-s" gradientUnits="userSpaceOnUse" x1="57.93" y1="43.819" x2="64.364" y2="40.105"><stop offset="0" stop-color="#00b4ef"></stop><stop offset="1" stop-color="#c3e9fa"></stop></linearGradient><path d="M64.6 40.5l.2.4s-1.9-.5-4.1.7c-1.9 1.2-2.3 3.1-2.3 3.1l-.2-.4s.2-1.7 2.3-3c2.2-1.4 4.1-.8 4.1-.8z" fill="url(#xcode-original-s)"></path><linearGradient id="xcode-original-t" gradientUnits="userSpaceOnUse" x1="55.424" y1="39.477" x2="61.9" y2="35.738"><stop offset="0" stop-color="#00b4ef"></stop><stop offset="1" stop-color="#c3e9fa"></stop></linearGradient><path d="M62.2 36.2l.3.4s-2-.8-4.3.5C56 38.5 56 40.4 56 40.4l-.3-.4s-.2-1.7 2.2-3.2c2.5-1.5 4.3-.6 4.3-.6z" fill="url(#xcode-original-t)"></path><path fill="#FFF" d="M55.5 71.3c8.7-15 18.7-32.4 18.7-32.4 1.3-2.2.5-5-1.7-6.3-2.2-1.3-5-.5-6.3 1.7 0 0-12.2 21.2-21.4 37h10.7zm-5.4 9.2C45.9 87.7 43 92.9 43 92.9c-1.3 2.2-4.1 3-6.3 1.7s-3-4.1-1.7-6.3c0 0 1.7-3.1 4.4-7.7 3.4-.1 9.6-.1 10.7-.1z"></path><linearGradient id="xcode-original-u" gradientUnits="userSpaceOnUse" x1="54.566" y1="94.401" x2="54.566" y2="32.794"><stop offset="0" stop-color="#1285e7"></stop><stop offset="1" stop-color="#00b5ef"></stop></linearGradient><path d="M54.4 71.3c8.8-15.2 19-32.9 19-32.9 1-1.7.4-4-1.3-5l-.1-.1c-1.7-1-4-.4-5 1.3 0 0-12 20.8-21.2 36.7h8.6zm-5.3 9.2c-4 7-6.9 12-6.9 12-1 1.7-3.2 2.3-5 1.3H37c-1.7-1-2.3-3.2-1.3-5 0 0 1.9-3.3 4.8-8.3h8.6z" fill="url(#xcode-original-u)"></path><linearGradient id="xcode-original-v" gradientUnits="userSpaceOnUse" x1="40.681" y1="94.131" x2="74.064" y2="36.311"><stop offset="0" stop-color="#3194e9"></stop><stop offset="1" stop-color="#71cff4"></stop></linearGradient><path d="M54.1 71.3L74 36.9v-.6s-11 19.1-20.2 35h.3zm-5.4 9.2l-7.6 13.2-.3.2-.3.1s3.4-5.9 7.8-13.5h.4z" fill="url(#xcode-original-v)"></path><linearGradient id="xcode-original-w" gradientUnits="userSpaceOnUse" x1="39.063" y1="94.482" x2="73.557" y2="34.736"><stop offset="0" stop-color="#5aa6ec"></stop><stop offset="1" stop-color="#a2def8"></stop></linearGradient><path d="M52.6 71.3l21-36.3-.1-.2-.1-.2S61.9 54.5 52.3 71.2l.3.1zm-5.3 9.2l-8 13.8h-.4s3.4-5.9 8-13.9c.2.1.4.1.4.1z" fill="url(#xcode-original-w)"></path><linearGradient id="xcode-original-x" gradientUnits="userSpaceOnUse" x1="37.118" y1="93.885" x2="72.072" y2="33.343"><stop offset="0" stop-color="#66abee"></stop><stop offset="1" stop-color="#bee8fa"></stop></linearGradient><path d="M50.4 71.3c9.9-17.1 21.8-37.8 21.8-37.8l-.3-.2-22 38h.5zM45 80.6C40.6 88.3 37.3 94 37.3 94l-.3-.2s3.2-5.6 7.6-13.2c.2-.1.1-.1.4 0z" fill="url(#xcode-original-x)"></path><linearGradient id="xcode-original-y" gradientUnits="userSpaceOnUse" x1="35.568" y1="92.482" x2="70.085" y2="32.697"><stop offset="0" stop-color="#7bb6f0"></stop><stop offset="1" stop-color="#b1e3f9"></stop></linearGradient><path d="M48 71.3c9.9-17.1 22.2-38.5 22.2-38.5h-.4S57.5 54.1 47.6 71.3h.4zm-5.8 9.2c-4 6.9-6.7 11.6-6.7 11.6l.1.2.1.2s2.9-5 7-12h-.5z" fill="url(#xcode-original-y)"></path><linearGradient id="xcode-original-z" gradientUnits="userSpaceOnUse" x1="35.056" y1="90.872" x2="68.415" y2="33.092"><stop offset="0" stop-color="#5aa6ec"></stop><stop offset="1" stop-color="#afe3f9"></stop></linearGradient><path d="M46.5 71.3l22-38.1-.2.1-.2.1-.1.1S55.8 54.6 46.2 71.3h.3zm-5.3 9.2c-3.5 6.1-6 10.4-6 10.4v-.8s2.2-3.8 5.6-9.7c.2.1.2.1.4.1z" fill="url(#xcode-original-z)"></path><linearGradient id="xcode-original-A" gradientUnits="userSpaceOnUse" x1="66.362" y1="35.689" x2="72.838" y2="39.428"><stop offset="0" stop-color="#c1e7fa"></stop><stop offset="1" stop-color="#89d4f5"></stop></linearGradient><path d="M66 36.2l-.2.4s1.8-.9 4.2.4c2.2 1.2 2.3 3.3 2.3 3.3l.2-.4s.2-1.9-2.3-3.3-4.2-.4-4.2-.4z" fill="url(#xcode-original-A)"></path><linearGradient id="xcode-original-B" gradientUnits="userSpaceOnUse" x1="63.856" y1="40.03" x2="70.332" y2="43.768"><stop offset="0" stop-color="#c1e7fa"></stop><stop offset="1" stop-color="#89d4f5"></stop></linearGradient><path d="M63.6 40.5l-.2.4s2-.6 4.1.6c2 1.1 2.4 3 2.4 3l.2-.4s-.2-1.8-2.4-3c-2.3-1.3-4.1-.6-4.1-.6z" fill="url(#xcode-original-B)"></path><linearGradient id="xcode-original-C" gradientUnits="userSpaceOnUse" x1="61.273" y1="44.505" x2="67.748" y2="48.243"><stop offset="0" stop-color="#c1e7fa"></stop><stop offset="1" stop-color="#89d4f5"></stop></linearGradient><path d="M61.1 44.7l-.2.4s1.8-.1 3.8 1.1c1.8 1 2.7 2.6 2.7 2.6l.2-.4s-.9-1.6-2.7-2.6c-1.9-1.1-3.8-1.1-3.8-1.1z" fill="url(#xcode-original-C)"></path><linearGradient id="xcode-original-D" gradientUnits="userSpaceOnUse" x1="58.761" y1="48.855" x2="65.236" y2="52.594"><stop offset="0" stop-color="#b0dff8"></stop><stop offset="1" stop-color="#52bdf2"></stop></linearGradient><path d="M58.7 49l-.2.4s2 .3 3.7 1.3c1.6.9 2.8 2.4 2.8 2.4l.2-.4s-1.2-1.5-2.8-2.4c-1.7-1-3.7-1.3-3.7-1.3z" fill="url(#xcode-original-D)"></path><linearGradient id="xcode-original-E" gradientUnits="userSpaceOnUse" x1="56.25" y1="53.204" x2="62.727" y2="56.943"><stop offset="0" stop-color="#b4def8"></stop><stop offset="1" stop-color="#4eb5f0"></stop></linearGradient><path d="M56.2 53.2l-.2.4s1.9.5 3.6 1.5c1.6.9 2.9 2.2 2.9 2.2l.2-.4s-1.3-1.3-2.9-2.2c-1.6-.9-3.6-1.5-3.6-1.5z" fill="url(#xcode-original-E)"></path><linearGradient id="xcode-original-F" gradientUnits="userSpaceOnUse" x1="53.74" y1="57.553" x2="60.215" y2="61.291"><stop offset="0" stop-color="#b4def8"></stop><stop offset="1" stop-color="#4eb5f0"></stop></linearGradient><path d="M53.8 57.4l-.3.4s1.8.7 3.5 1.7c1.6.9 3 2 3 2l.2-.4s-1.4-1.1-3-2c-1.6-.9-3.4-1.7-3.4-1.7z" fill="url(#xcode-original-F)"></path><linearGradient id="xcode-original-G" gradientUnits="userSpaceOnUse" x1="51.239" y1="61.886" x2="57.713" y2="65.624"><stop offset="0" stop-color="#b5ddf8"></stop><stop offset="1" stop-color="#46aeee"></stop></linearGradient><path d="M51.1 62.1l.2-.4 6.5 3.7-.2.4-6.5-3.7z" fill="url(#xcode-original-G)"></path><linearGradient id="xcode-original-H" gradientUnits="userSpaceOnUse" x1="48.735" y1="66.22" x2="55.211" y2="69.959"><stop offset="0" stop-color="#96cef4"></stop><stop offset="1" stop-color="#46aaee"></stop></linearGradient><path d="M48.7 66.4l.2-.4s1.6 1.2 3.3 2.1c1.6.9 3.2 1.6 3.2 1.6l-.2.3s-1.7-.7-3.3-1.6c-1.7-.9-3.2-2-3.2-2z" fill="url(#xcode-original-H)"></path><path d="M47.1 71.3c-.5-.4-.8-.7-.8-.7l.2-.4s.6.5 1.4 1.1h-.8z" fill="#73b9f1"></path><linearGradient id="xcode-original-I" gradientUnits="userSpaceOnUse" x1="42.719" y1="80.135" x2="47.681" y2="83"><stop offset="0" stop-color="#8fc1f2"></stop><stop offset="1" stop-color="#3193ea"></stop></linearGradient><path d="M43.2 80.5c.4.3.8.6 1.3.9 1.8 1 3.6.9 3.6.9l-.2.4s-1.8.1-3.6-.9c-.7-.4-1.3-.9-1.7-1.3h.6z" fill="url(#xcode-original-I)"></path><linearGradient id="xcode-original-J" gradientUnits="userSpaceOnUse" x1="38.634" y1="83.717" x2="45.11" y2="87.456"><stop offset="0" stop-color="#8fc1f2"></stop><stop offset="1" stop-color="#3193ea"></stop></linearGradient><path d="M38.9 83.3l.2-.4s.5 2 2.7 3.2c2 1.1 3.8.5 3.8.5l-.2.4s-1.6.7-3.8-.5c-2.3-1.3-2.7-3.2-2.7-3.2z" fill="url(#xcode-original-J)"></path><linearGradient id="xcode-original-K" gradientUnits="userSpaceOnUse" x1="36.124" y1="88.063" x2="42.599" y2="91.802"><stop offset="0" stop-color="#8fc1f2"></stop><stop offset="1" stop-color="#3193ea"></stop></linearGradient><path d="M36.4 87.6l.2-.4s.2 2.1 2.6 3.4c2.2 1.2 3.9.3 3.9.3l-.3.4s-1.5 1.1-3.9-.3c-2.5-1.4-2.5-3.4-2.5-3.4z" fill="url(#xcode-original-K)"></path><linearGradient id="xcode-original-L" gradientUnits="userSpaceOnUse" x1="76.722" y1="64.933" x2="89.179" y2="71.008"><stop offset=".001"></stop><stop offset="1" stop-opacity="0"></stop></linearGradient><path d="M68.8 114.2l42.8-89.9-10.8-5.1-44.6 93.5s1.4.7 3.2 1.5h9.4z" fill="url(#xcode-original-L)"></path><radialGradient id="xcode-original-M" cx="95.237" cy="25.132" r="16.181" fx="79.585" fy="25.974" gradientTransform="matrix(-.4494 .8933 -1.5457 -.7777 176.886 -40.4)" gradientUnits="userSpaceOnUse"><stop offset="0"></stop><stop offset="1" stop-opacity="0"></stop></radialGradient><path d="M94.1 13.8l20 9.5V52C107.2 48.7 61 26.7 61 26.7s3.2-6.7 6.2-12.9h26.9z" fill="url(#xcode-original-M)"></path><radialGradient id="xcode-original-N" cx="51.211" cy="114.953" r="7.901" fx="51.196" fy="117.292" gradientTransform="matrix(.8979 .4402 -.2506 .5111 34.032 33.662)" gradientUnits="userSpaceOnUse"><stop offset=".417" stop-color="#0c0c12"></stop><stop offset="1" stop-color="#3d4651"></stop></radialGradient><path d="M44.5 110.2c-.3.6-.8 1.3-.7 2.4.1 4.1 6.8 7.9 10.7 7.9 2.7 0 3.6-1.1 4.6-3.1s-13.5-9.6-14.6-7.2z" fill="url(#xcode-original-N)"></path><linearGradient id="xcode-original-O" gradientUnits="userSpaceOnUse" x1="84.758" y1="39.174" x2="94.522" y2="44.149"><stop offset="0" stop-color="#344351"></stop><stop offset=".1" stop-color="#9697a0"></stop><stop offset=".181" stop-color="#8b8c95"></stop><stop offset=".351" stop-color="#787a83"></stop><stop offset=".47" stop-color="#71747d"></stop><stop offset=".591" stop-color="#777982"></stop><stop offset=".749" stop-color="#87898f"></stop><stop offset=".8" stop-color="#8e8f94"></stop><stop offset=".849" stop-color="#3d3b42"></stop><stop offset=".9" stop-color="#606e84"></stop></linearGradient><path d="M90.6 25.1s10.3 2.5 11.1 3.2-1.3 4.7-1.7 5.3c-3.3 4-13.6 26.1-13.6 26.1l-9.5-5.4s8.5-15.8 11.5-21.4c1.9-3.8 2.2-7.8 2.2-7.8z" fill="url(#xcode-original-O)"></path><linearGradient id="xcode-original-P" gradientUnits="userSpaceOnUse" x1="117.884" y1="29.257" x2="106.863" y2="14.364"><stop offset=".27" stop-color="#262b33"></stop><stop offset=".45" stop-color="#74747e"></stop><stop offset=".54" stop-color="#b0b0bc"></stop><stop offset=".73" stop-color="#74747e"></stop></linearGradient><path d="M114.4 19.9c1.8 1.3 4.2 1 6.1.7 1.3-.2-.7 1.7-2.9 6.1s-2.1 4.7-2.4 4.4c-.3-.3-10.2-5.9-9.9-6.4.4-.5 2-11.4 2.8-11.1 2.9.7 3.4 4.2 6.3 6.3z" fill="url(#xcode-original-P)"></path><linearGradient id="xcode-original-Q" gradientUnits="userSpaceOnUse" x1="98.542" y1="30.424" x2="114.815" y2="28.322"><stop offset=".14" stop-color="#606e84"></stop><stop offset=".4" stop-color="#9899a5"></stop><stop offset=".73" stop-color="#475768"></stop><stop offset=".92" stop-color="#262b33"></stop></linearGradient><path d="M99 32.2c.7-1.1 3.9-7.9 9-7.9 2.3 0 6.7 5.8 7.1 6.6.3.7-.7 3.5-1.2 2.2-.6-1.5-3.1-4.7-5.8-4.7s-6.4 3.1-7.3 4.2c-.9 1-2.5.7-1.8-.4z" fill="url(#xcode-original-Q)"></path><linearGradient id="xcode-original-R" gradientUnits="userSpaceOnUse" x1="106.128" y1="31.808" x2="104.549" y2="22.854"><stop offset="0" stop-color="#101215" stop-opacity=".1"></stop><stop offset=".46" stop-color="#101215" stop-opacity=".7"></stop><stop offset=".7" stop-color="#474951"></stop><stop offset=".91" stop-color="#7b7d88"></stop></linearGradient><path d="M98.8 31.8c.5-.8 2.8-4.3 3.9-5.4s3.9-4 6.3-4.4c2.4-.4 4.9 4.5 4.1 5.5-.6.7-1.6-.1-2.8-1.1-1.2-.9-2-2.7-5.8.2-1.3 1-2.6 1.8-5.6 6.1-.8 1.1-.6-.1-.1-.9z" fill="url(#xcode-original-R)"></path><linearGradient id="xcode-original-S" gradientUnits="userSpaceOnUse" x1="58.131" y1="81.721" x2="73.237" y2="89.154"><stop offset=".115" stop-color="#2c3952"></stop><stop offset=".374" stop-color="#3d414e"></stop><stop offset=".55" stop-color="#474a54"></stop><stop offset=".754" stop-color="#4e5057"></stop><stop offset=".892" stop-color="#323945"></stop><stop offset="1" stop-color="#143052"></stop></linearGradient><path d="M86.4 61c.4-.8.9-2-.2-2.9-1.2-.9-6.8-3.9-7.8-4.1-1-.2-1.8 0-2.2.7-.4.7-31.1 53.3-31.7 54.8-.6 1.5-.7 2.6.2 2.9.9.3 11.2 5.2 12.2 6.3 1 1.1 1.5-.1 1.9-.7 1.9-2.4 27.1-56.2 27.6-57z" fill="url(#xcode-original-S)"></path><linearGradient id="xcode-original-T" gradientUnits="userSpaceOnUse" x1="81.508" y1="31.679" x2="93.19" y2="6.047"><stop offset=".118" stop-color="#6d7078" stop-opacity="0"></stop><stop offset=".2" stop-color="#6d7078" stop-opacity=".7"></stop><stop offset=".34" stop-color="#35363a"></stop><stop offset=".374" stop-color="#1d1f22"></stop><stop offset=".4" stop-color="#101215"></stop><stop offset=".5" stop-color="#16171a"></stop><stop offset=".56" stop-color="#292a2e"></stop><stop offset=".688" stop-color="#4b4d51"></stop><stop offset=".807" stop-color="#63666b"></stop><stop offset=".915" stop-color="#72757b"></stop><stop offset="1" stop-color="#777a80"></stop></linearGradient><path d="M99.5 31.6c.5-.7 1.7-2.7 3.2-4.5 1-1.2 6.4-3.8 7.6-8 .7-2.3-.4-4.6-1.9-5.6-5.1-3.1-13.9-8-26.8-8-8.7 0-12.4 2.9-12.4 2.9h4.4l15.3 6 1.9 8s.2 2.7-.7 5.8c-.6 2.5-.8 4-1.7 6.5.7.3 2.3-.8 4.1-.3 1.6.4 2.6 2.6 3.7 1.3 1.9-2.5 2.5-3 3.3-4.1z" fill="url(#xcode-original-T)"></path><linearGradient id="xcode-original-U" gradientUnits="userSpaceOnUse" x1="69.064" y1="16.837" x2="91.026" y2="16.837"><stop offset="0" stop-color="#4a4d56"></stop><stop offset="1" stop-color="#29292d"></stop></linearGradient><path d="M90.5 25.4C89.7 18 87.9 11 69.1 11.1c1.2-1.2 4.1-2.4 4.1-2.4l-4.1-.3s.6-.5 1.8-.6c11-.9 20.8 1.4 20.1 15.7-.1 2.3-.3 3.3-.5 1.9z" fill="url(#xcode-original-U)"></path><linearGradient id="xcode-original-V" gradientUnits="userSpaceOnUse" x1="69.064" y1="11.697" x2="88.054" y2="11.697"><stop offset="0" stop-color="#767880"></stop><stop offset=".41" stop-color="#0c0a0b"></stop></linearGradient><path d="M69.1 11.1c1.3-.5 3.1-.8 6.5-.6 4.2.2 9.5 1.8 11.7 3.8 1.1 1 1 .2-.2-1.1-3.1-3.6-7.8-4.4-13.9-4.5-.7-.1-3 1.2-4.1 2.4z" fill="url(#xcode-original-V)"></path><linearGradient id="xcode-original-W" gradientUnits="userSpaceOnUse" x1="116.332" y1="34.756" x2="123.707" y2="21.982"><stop offset="0" stop-color="#858997"></stop><stop offset=".23" stop-color="#244668"></stop><stop offset=".282" stop-color="#1a3249"></stop><stop offset=".4" stop-color="#040506"></stop><stop offset=".464" stop-color="#313236"></stop><stop offset=".546" stop-color="#65656e"></stop><stop offset=".607" stop-color="#868691"></stop><stop offset=".64" stop-color="#92929e"></stop></linearGradient><path d="M120.7 20.6l5.5 2.8s-2.1 2.8-3.8 6c-1.8 3.4-3 7.1-3 7.1l-5.3-3.2s1.3-3.6 3.2-7.1c1.5-2.9 3.4-5.6 3.4-5.6z" fill="url(#xcode-original-W)"></path><path d="M126.2 23.4c.4.2-.9 3.3-2.8 6.9-1.9 3.6-3.7 6.4-4 6.2-.4-.2.9-3.3 2.8-6.9 1.8-3.6 3.6-6.4 4-6.2z" fill="#bfc0d0"></path>
    </symbol>
</svg>